{"glyphs":{"0":{"ha":864,"x_min":28,"x_max":857,"o":"m 275 89 q 297 88 282 88 q 425 124 356 88 q 557 228 494 161 q 667 390 619 296 q 731 596 715 483 q 738 677 736 632 q 731 762 739 722 q 705 829 724 801 q 651 857 686 857 q 555 837 607 857 q 451 781 503 817 q 351 697 400 746 q 263 592 303 649 q 197 471 224 535 q 161 342 169 407 q 178 158 144 219 q 275 89 213 97 m 671 925 q 760 897 722 925 q 819 823 797 869 q 849 715 842 776 q 847 585 857 653 q 779 362 832 469 q 651 171 726 254 q 485 38 575 88 q 306 -12 396 -12 q 287 -12 296 -12 q 268 -10 278 -11 q 181 21 226 -4 q 99 91 135 46 q 46 201 64 136 q 39 353 28 267 q 80 499 49 428 q 158 634 111 571 q 265 751 206 697 q 392 843 325 804 q 530 903 458 882 q 671 925 601 925 z "},"1":{"ha":360,"x_min":-118,"x_max":421,"o":"m 204 389 q 74 161 119 239 q 13 56 28 83 q -30 12 -6 25 q -76 -1 -54 -1 q -106 7 -94 -1 q -117 29 -118 15 q -97 75 -117 38 q -44 169 -76 113 q 28 295 -12 225 q 111 439 69 365 q 199 599 163 528 q 254 699 235 669 q 290 772 281 740 q 300 826 299 804 q 294 872 301 853 q 371 924 335 924 q 406 903 392 924 q 421 843 419 883 q 401 773 421 822 q 349 660 381 724 q 278 526 317 597 q 204 389 240 454 z "},"2":{"ha":596,"x_min":-222,"x_max":540,"o":"m 121 0 q 38 -5 76 -3 q -33 -7 -1 -7 q -177 12 -132 -7 q -219 78 -222 31 q -209 94 -219 86 q -182 108 -199 101 q 14 244 -86 179 q 197 370 114 308 q 338 492 281 432 q 407 615 396 553 q 408 696 411 657 q 396 768 406 735 q 369 826 386 801 q 332 863 353 850 q 322 866 326 865 q 311 867 318 867 q 282 858 296 865 q 253 841 268 850 q 222 824 239 832 q 182 815 206 817 q 163 818 172 815 q 147 826 153 821 q 138 840 140 832 q 140 858 135 849 q 169 885 149 875 q 214 901 190 896 q 259 909 238 907 q 290 911 281 911 q 302 912 297 911 q 314 913 307 913 q 482 835 424 913 q 524 604 540 758 q 474 492 513 547 q 383 384 436 436 q 266 284 329 332 q 141 197 203 236 q 25 125 79 157 q -64 74 -29 93 q 56 83 -7 79 q 180 90 119 88 q 295 92 240 92 q 389 93 350 93 q 442 93 422 93 q 464 92 461 93 q 502 68 499 81 q 467 44 506 56 q 345 21 429 32 q 121 0 261 10 z "},"3":{"ha":624,"x_min":-93,"x_max":575,"o":"m -93 176 q -87 203 -93 188 q -72 232 -82 218 q -50 255 -62 246 q -25 264 -37 264 q -10 254 -12 264 q -7 236 -8 244 q 3 172 -4 204 q 26 115 11 140 q 67 74 42 90 q 131 58 92 58 q 229 88 179 58 q 320 161 279 117 q 388 258 361 206 q 414 358 414 311 q 408 392 414 376 q 350 378 390 386 q 265 363 310 369 q 180 350 221 356 q 118 344 139 344 q 77 353 93 344 q 61 390 61 363 q 73 415 61 410 q 99 428 85 419 q 154 465 119 440 q 230 521 189 489 q 313 590 271 553 q 388 664 354 628 q 444 733 422 700 q 465 790 465 767 q 455 824 465 810 q 428 848 444 839 q 392 862 411 857 q 357 867 374 867 q 328 858 343 867 q 298 841 314 850 q 265 824 282 832 q 228 815 247 815 q 198 822 214 815 q 182 846 182 829 q 209 883 182 869 q 272 903 236 896 q 344 912 308 910 q 396 914 379 914 q 456 910 425 914 q 514 894 488 906 q 558 860 540 882 q 575 801 575 838 q 539 697 575 753 q 451 591 503 642 q 340 500 399 540 q 233 442 281 460 q 328 453 278 447 q 422 460 378 460 q 458 458 440 460 q 490 449 475 456 q 513 428 504 442 q 522 393 522 415 q 492 235 522 310 q 409 105 463 161 q 283 16 356 49 q 128 -17 211 -17 q 44 -4 85 -17 q -26 33 4 8 q -75 94 -57 58 q -93 176 -93 131 z "},"4":{"ha":740,"x_min":-28,"x_max":772,"o":"m 315 299 q 232 294 271 296 q 161 292 193 292 q 17 310 63 292 q -25 376 -28 329 q -15 392 -25 385 q 13 407 -4 400 q 194 551 108 478 q 342 694 279 624 q 443 829 406 764 q 481 950 481 894 q 500 955 490 953 q 521 957 510 957 q 564 942 544 957 q 585 885 583 928 q 545 774 574 828 q 478 669 517 719 q 394 574 440 619 q 301 491 347 529 q 210 423 254 453 q 131 372 165 393 q 281 383 201 379 q 435 390 361 388 q 449 414 442 401 q 463 439 456 426 q 550 599 514 528 q 606 699 586 669 q 641 772 632 740 q 651 826 650 804 q 646 872 653 853 q 722 924 686 924 q 757 903 743 924 q 772 843 771 883 q 752 774 772 822 q 701 662 732 725 q 631 528 669 599 q 557 392 593 457 q 628 392 601 392 q 658 390 656 392 q 694 372 686 382 q 687 353 703 363 q 629 335 671 344 q 515 317 588 325 q 414 142 450 203 q 364 56 378 81 q 322 12 346 25 q 275 -1 297 -1 q 245 7 257 -1 q 235 29 233 15 q 247 60 235 36 q 280 120 260 83 q 327 204 300 157 q 385 304 354 251 q 351 301 368 303 q 315 299 335 300 z "},"5":{"ha":636,"x_min":-78,"x_max":644,"o":"m 143 -15 q 60 -3 100 -15 q -11 35 19 10 q -60 96 -42 60 q -78 178 -78 132 q -72 204 -78 189 q -57 233 -67 219 q -35 256 -47 247 q -10 265 -22 265 q 5 256 3 265 q 8 238 7 246 q 19 174 11 206 q 42 117 26 142 q 82 76 57 92 q 146 60 107 60 q 244 89 194 60 q 335 163 294 118 q 403 260 376 207 q 429 360 429 313 q 424 393 429 378 q 365 379 406 388 q 281 364 325 371 q 195 351 236 357 q 133 346 154 346 q 85 363 97 346 q 66 378 75 368 q 53 402 57 389 q 53 431 49 415 q 72 464 57 447 q 171 579 135 521 q 227 694 207 638 q 258 808 247 751 q 279 919 268 865 q 294 924 286 922 q 310 925 301 925 q 493 944 429 940 q 585 949 557 949 q 608 947 606 949 q 644 920 644 936 q 615 890 644 904 q 526 865 585 875 q 383 854 467 854 q 313 615 357 721 q 199 438 268 508 l 249 443 q 343 455 293 449 q 438 461 393 461 q 473 459 456 461 q 505 450 490 457 q 528 430 519 443 q 538 394 538 417 q 508 237 538 311 q 424 106 478 163 q 299 17 371 50 q 143 -15 226 -15 z "},"6":{"ha":603,"x_min":-33,"x_max":729,"o":"m -22 354 q 47 569 -7 467 q 180 751 100 672 q 358 878 260 831 q 563 925 457 925 q 580 926 571 926 q 599 926 589 926 q 647 924 624 926 q 690 915 671 921 q 719 899 708 908 q 728 875 729 889 q 720 854 728 865 q 702 835 713 843 q 680 821 692 826 q 660 815 668 815 q 624 825 638 817 q 601 843 611 833 q 581 860 592 853 q 556 868 571 868 q 453 844 507 868 q 347 777 399 819 q 249 676 296 735 q 168 551 203 618 q 265 623 210 594 q 393 651 321 651 q 410 651 401 651 q 429 650 419 651 q 513 613 481 644 q 561 535 546 582 q 574 428 576 488 q 555 309 572 369 q 506 192 538 249 q 430 90 474 135 q 330 19 386 46 q 207 -8 274 -8 q 118 16 164 -8 q 38 87 72 40 q -15 201 3 133 q -22 354 -33 268 m 94 265 q 105 185 96 222 q 129 122 114 149 q 166 79 144 94 q 214 64 188 64 q 287 101 249 64 q 358 192 325 138 q 416 312 392 247 q 446 432 440 376 q 434 524 451 488 q 368 561 417 561 q 272 531 317 561 q 191 457 226 501 q 131 361 156 413 q 94 265 106 310 z "},"7":{"ha":657,"x_min":139,"x_max":774,"o":"m 269 56 q 227 12 251 25 q 181 -1 203 -1 q 151 7 163 -1 q 140 29 139 15 q 160 75 140 38 q 213 169 181 113 q 285 295 244 225 q 368 439 326 365 q 456 599 419 528 q 511 699 492 669 q 553 769 535 736 q 582 826 571 801 q 506 813 544 819 q 433 802 468 807 q 372 793 399 797 q 332 786 344 789 q 260 771 292 776 q 204 765 228 765 q 156 797 154 765 q 204 835 156 817 q 328 871 253 854 q 489 901 408 889 q 651 925 569 914 q 706 929 679 929 q 744 926 728 929 q 767 916 761 924 q 766 897 774 908 q 731 867 758 885 q 725 864 728 865 q 718 861 722 863 q 675 777 704 831 q 610 658 646 724 q 535 523 574 593 q 461 389 496 453 q 331 161 376 239 q 269 56 285 83 z "},"8":{"ha":614,"x_min":-33,"x_max":628,"o":"m 156 -6 q 91 13 126 -1 q 27 56 56 26 q -17 132 -1 85 q -24 250 -33 179 q 44 435 -10 347 q 178 581 99 522 q 153 650 153 606 q 188 766 153 711 q 278 864 224 821 q 395 932 332 907 q 514 957 458 957 q 598 930 568 957 q 628 843 628 903 q 588 728 628 785 q 489 629 549 672 q 558 542 533 603 q 569 381 583 482 q 531 243 560 313 q 455 117 501 174 q 346 26 408 61 q 207 -8 283 -8 q 181 -8 193 -8 q 156 -6 168 -7 m 101 247 q 101 168 96 201 q 120 113 107 135 q 153 78 133 90 q 196 64 174 67 l 208 64 l 214 64 q 285 99 247 64 q 355 186 322 133 q 412 302 388 239 q 444 422 436 365 q 436 522 454 489 q 382 560 418 556 q 365 561 376 561 q 349 560 354 561 q 332 556 340 557 q 317 553 324 554 q 247 516 282 542 q 183 451 213 490 q 132 361 154 413 q 101 247 110 310 m 307 642 q 349 650 328 649 q 415 685 381 661 q 478 739 450 708 q 526 804 507 769 q 544 869 544 839 q 533 899 544 889 q 506 910 522 910 q 432 885 472 910 q 356 825 392 861 q 297 748 321 789 q 272 675 272 707 q 307 642 272 642 z "},"9":{"ha":681,"x_min":-53,"x_max":711,"o":"m 699 564 q 630 349 683 451 q 497 167 576 246 q 318 40 417 88 q 114 -7 219 -7 q 97 -8 106 -8 q 78 -8 88 -8 q 31 -6 54 -8 q -12 3 7 -3 q -42 19 -31 10 q -51 43 -53 29 q -44 64 -51 53 q -25 84 -36 75 q -2 99 -14 93 q 18 103 10 104 q 53 94 40 101 q 76 76 67 86 q 96 59 86 67 q 121 51 106 51 q 224 74 171 50 q 330 142 278 99 q 428 242 382 185 q 510 367 475 300 q 412 296 468 325 q 283 267 356 267 q 265 267 274 267 q 247 268 257 267 q 144 328 179 276 q 103 453 108 379 q 122 610 99 526 q 194 763 146 693 q 312 880 242 833 q 471 926 382 926 q 559 903 514 926 q 640 833 604 879 q 693 718 675 786 q 699 564 711 650 m 582 653 q 573 733 582 696 q 549 797 564 769 q 511 840 533 824 q 463 856 489 856 q 390 819 429 856 q 318 726 351 782 q 260 607 285 671 q 231 488 236 543 q 242 395 225 432 q 308 358 260 358 l 321 358 q 398 383 358 358 q 474 447 438 407 q 539 541 510 488 q 582 653 568 594 z "},"\u0000":{"ha":0,"x_min":0,"x_max":0,"o":""},"\r":{"ha":347,"x_min":0,"x_max":0,"o":""}," ":{"ha":568,"x_min":0,"x_max":0,"o":""},"\n":{"ha":0,"x_min":0,"x_max":0,"o":""},"A":{"ha":761,"x_min":-137,"x_max":865,"o":"m 746 932 q 787 968 765 956 q 826 981 808 981 q 853 971 843 981 q 865 940 864 961 q 855 869 865 919 q 826 751 844 819 q 783 600 807 682 q 733 434 758 518 q 681 269 707 350 q 633 123 654 189 q 595 11 611 57 q 574 -49 579 -35 q 539 -94 561 -81 q 494 -108 517 -108 q 463 -100 476 -108 q 449 -76 450 -92 q 457 -37 449 -68 q 481 40 465 -7 q 517 144 497 86 q 560 267 538 203 q 485 254 528 261 q 389 239 443 247 q 358 234 374 236 q 326 229 342 232 q 231 116 276 169 q 149 19 185 63 q 88 -53 113 -24 q 53 -93 63 -82 q 1 -139 26 -125 q -44 -153 -25 -153 q -69 -144 -61 -153 q -72 -121 -78 -136 q -49 -86 -71 -114 q 6 -15 -28 -58 q 86 84 40 29 q 182 200 132 139 q 24 166 94 181 q -86 151 -46 151 q -132 182 -137 151 q -95 211 -129 197 q -8 238 -61 225 q 114 264 46 251 q 253 286 182 276 q 376 433 315 360 q 491 567 438 506 q 584 676 544 629 q 642 744 624 724 q 697 819 679 788 q 722 872 715 851 q 726 914 729 897 q 736 924 732 919 q 746 932 740 928 m 389 303 q 496 315 447 310 q 579 324 544 321 q 618 433 599 379 q 655 537 638 488 q 686 627 672 586 q 710 697 700 668 q 559 509 643 613 q 389 303 475 406 z "},"B":{"ha":867,"x_min":-37,"x_max":836,"o":"m -8 -103 q -29 -94 -21 -101 q -37 -74 -37 -87 q -25 -42 -37 -68 q 8 24 -12 -15 q 56 112 29 64 q 109 208 82 160 q 162 301 136 257 q 206 379 188 346 q 186 403 186 385 q 201 419 186 411 q 239 436 215 428 q 240 438 239 438 q 240 439 240 438 q 316 569 278 506 q 394 699 354 633 q 427 763 414 729 q 440 833 440 797 q 319 803 382 818 q 196 788 256 788 q 165 791 182 788 q 147 814 147 794 q 170 837 147 825 q 229 860 193 849 q 308 881 265 871 q 389 900 350 892 q 458 914 428 908 q 497 921 488 919 l 496 922 q 553 933 524 929 q 613 936 583 936 q 694 926 654 936 q 766 895 735 917 q 817 840 797 874 q 836 758 836 807 q 799 625 836 679 q 697 531 763 571 q 689 525 696 529 q 676 516 682 521 q 665 507 669 511 q 663 503 660 503 q 719 474 693 494 q 763 427 744 454 q 791 369 781 400 q 801 307 801 338 q 788 229 801 267 q 753 158 775 192 q 705 94 732 124 q 649 39 678 64 q 536 -35 597 -6 q 410 -82 475 -64 q 276 -107 344 -100 q 142 -114 207 -114 q 66 -112 104 -114 q -10 -104 28 -110 l -8 -103 m 344 389 q 267 253 306 319 q 194 129 228 186 q 136 29 161 72 q 99 -36 111 -14 q 128 -37 114 -37 q 157 -37 142 -37 q 378 -4 282 -37 q 541 81 475 29 q 642 193 607 132 q 676 310 676 254 q 667 371 676 347 q 643 408 658 394 q 609 426 628 421 q 569 432 590 432 q 523 427 546 432 q 485 418 500 422 l 344 389 m 392 475 q 465 488 429 482 q 528 499 500 494 q 588 540 556 515 q 647 599 619 565 q 692 673 674 632 q 711 763 711 714 q 702 813 711 793 q 677 843 693 832 q 641 858 661 854 q 600 863 621 863 q 579 862 589 863 q 560 860 569 861 q 561 843 561 854 q 548 786 561 822 q 511 702 535 750 q 457 597 488 654 q 392 475 426 539 z "},"C":{"ha":1161,"x_min":25,"x_max":1211,"o":"m 447 -1 q 643 27 551 -1 q 815 106 735 56 q 967 222 896 156 q 1101 365 1038 289 q 1126 392 1115 382 q 1161 401 1138 401 q 1174 400 1165 401 q 1190 396 1182 399 q 1205 390 1199 393 q 1211 381 1211 386 q 1196 335 1211 363 q 1159 280 1181 308 q 1116 226 1138 251 q 1082 189 1094 201 q 950 74 1022 128 q 798 -19 878 21 q 632 -83 718 -60 q 458 -106 546 -106 q 299 -85 376 -106 q 160 -23 221 -65 q 62 85 99 19 q 25 243 25 151 q 56 388 25 317 q 140 526 86 460 q 263 652 193 593 q 413 760 333 711 q 575 847 492 810 q 738 904 658 883 q 851 924 786 917 q 983 932 917 932 q 1058 922 1019 932 q 1128 896 1096 913 q 1180 856 1160 879 q 1200 806 1200 833 q 1178 769 1200 782 q 1136 756 1156 756 q 1103 765 1115 756 q 1083 788 1092 775 q 1067 813 1075 800 q 1046 833 1058 826 q 999 853 1019 849 q 965 857 979 857 q 819 831 903 857 q 646 761 735 806 q 470 658 557 717 q 315 531 383 599 q 206 390 247 463 q 164 249 164 318 q 185 136 164 183 q 245 58 207 89 q 335 13 283 28 q 447 -1 388 -1 z "},"D":{"ha":867,"x_min":-37,"x_max":865,"o":"m -8 -103 q -29 -94 -21 -101 q -37 -74 -37 -87 q -18 -24 -37 -67 q 38 78 1 19 l 394 699 q 427 763 414 729 q 440 833 440 797 q 319 803 382 818 q 196 788 256 788 q 165 791 182 788 q 147 814 147 794 q 174 838 147 825 q 244 864 201 850 q 339 891 286 878 q 444 914 392 904 q 541 930 496 924 q 613 936 586 936 q 735 891 682 936 q 819 772 788 846 q 858 604 850 699 q 844 411 865 510 q 773 218 824 313 q 636 50 722 124 q 428 -69 550 -24 q 142 -114 306 -114 q 66 -112 104 -114 q -10 -104 28 -110 l -8 -103 m 560 860 q 561 843 561 854 q 544 781 561 824 q 500 681 528 739 q 435 553 472 622 q 357 413 397 485 q 276 270 317 340 q 201 140 236 200 q 140 33 167 79 q 99 -36 113 -12 q 127 -37 114 -37 q 154 -37 140 -37 q 378 1 282 -37 q 542 103 474 40 q 652 247 610 167 q 714 412 694 328 q 732 576 733 496 q 712 720 731 657 q 658 822 693 783 q 576 861 624 861 q 560 860 565 861 z "},"E":{"ha":717,"x_min":-121,"x_max":1063,"o":"m -56 -103 q -65 -103 -61 -103 q -74 -104 -69 -104 q -119 -72 -121 -104 q -69 -33 -119 -53 q -33 37 -56 -6 q 17 130 -11 79 q 78 238 46 181 q 143 353 110 296 q 71 338 103 343 q 15 332 39 332 q -33 364 -35 332 q -15 388 -33 376 q 34 410 3 399 q 108 431 65 421 q 200 450 151 440 q 256 547 229 501 q 303 626 282 592 q 259 622 279 624 q 221 621 239 621 q 174 625 193 621 q 102 677 103 644 q 168 742 101 710 q 188 732 176 736 q 213 726 197 729 q 247 722 228 722 q 311 731 281 722 q 372 750 342 739 q 385 799 382 776 q 389 838 389 821 q 388 872 390 857 q 464 924 428 924 q 499 903 485 924 q 514 843 513 883 q 507 814 513 832 q 496 785 501 796 q 656 827 569 806 q 821 867 743 849 q 957 897 899 885 q 1032 908 1015 908 l 1035 908 q 1056 892 1050 906 q 1057 863 1063 879 q 1035 829 1051 846 q 986 803 1018 813 q 908 779 965 797 q 774 739 851 761 q 608 693 696 717 q 436 651 519 669 q 393 567 417 611 q 343 475 369 522 q 469 492 407 485 q 582 506 531 500 q 669 514 633 511 q 714 517 704 517 l 718 517 q 736 503 733 513 q 716 483 739 494 q 637 456 693 471 q 479 425 581 442 q 385 408 431 418 q 296 389 339 399 q 232 276 264 332 q 171 171 200 221 q 117 78 142 121 q 75 7 93 36 q 226 33 150 22 q 376 56 301 44 q 463 67 422 63 q 538 74 504 71 q 594 79 571 78 q 626 81 617 81 l 632 81 q 649 72 646 81 q 628 51 651 64 q 550 22 606 38 q 393 -11 494 6 q 322 -25 369 -15 q 222 -47 274 -35 q 124 -69 171 -58 q 57 -83 78 -79 q 19 -91 38 -87 q -14 -97 1 -94 q -43 -104 -31 -104 q -56 -103 -51 -104 z "},"F":{"ha":500,"x_min":-87,"x_max":1063,"o":"m 718 517 q 739 507 736 515 q 718 486 742 499 q 638 458 694 474 q 479 425 581 442 q 385 408 431 418 q 296 389 339 399 q 213 242 254 314 q 136 110 171 169 q 77 8 101 50 q 44 -47 53 -33 q 1 -91 26 -78 q -44 -104 -24 -104 q -76 -96 -64 -104 q -86 -74 -87 -87 q -66 -25 -86 -65 q -13 74 -46 15 q 60 206 19 133 q 143 353 101 279 q 71 338 103 343 q 15 332 39 332 q -33 364 -35 332 q -15 388 -33 376 q 34 410 3 399 q 108 431 65 421 q 200 450 151 440 q 256 547 229 501 q 303 626 282 592 q 259 622 279 624 q 221 621 239 621 q 174 625 193 621 q 102 677 103 644 q 168 742 101 710 q 188 732 176 736 q 213 726 197 729 q 247 722 228 722 q 311 731 281 722 q 372 750 342 739 q 385 799 382 776 q 389 838 389 821 q 388 872 390 857 q 464 924 428 924 q 499 903 485 924 q 514 843 513 883 q 507 814 513 832 q 496 785 501 796 q 656 827 569 806 q 821 867 743 849 q 957 897 899 885 q 1032 908 1015 908 l 1035 908 q 1056 892 1050 906 q 1057 863 1063 879 q 1035 829 1051 846 q 986 803 1018 813 q 908 779 965 797 q 774 739 851 761 q 608 693 696 717 q 436 651 519 669 q 393 567 417 611 q 343 475 369 522 q 469 492 407 485 q 582 506 531 500 q 669 514 633 511 q 714 517 704 517 l 718 517 z "},"G":{"ha":1163,"x_min":-46,"x_max":1156,"o":"m 719 860 q 517 806 611 849 q 349 700 424 763 q 219 561 274 638 q 135 407 164 485 q 103 256 106 329 q 131 125 101 182 q 224 33 161 68 q 388 -1 286 -1 q 554 20 476 -1 q 699 75 632 42 q 823 150 767 108 q 922 233 879 192 q 996 309 965 274 q 1042 365 1026 344 q 1042 379 1046 372 q 1033 383 1040 383 l 1031 383 q 942 369 1001 378 q 813 353 882 361 q 676 340 744 346 q 563 335 608 335 q 522 336 538 335 q 504 343 507 338 q 562 408 485 388 q 819 446 639 429 q 944 456 892 453 q 1033 460 996 460 q 1132 445 1108 460 q 1156 403 1156 431 q 1127 322 1156 372 q 1048 216 1099 272 q 926 102 997 160 q 772 -1 856 44 q 592 -76 688 -47 q 399 -106 497 -106 q 143 -51 244 -106 q -2 95 42 4 q -31 302 -46 186 q 64 539 -15 418 q 238 738 142 661 q 425 857 333 814 q 594 915 517 900 q 714 931 672 931 q 749 920 739 931 q 758 897 760 910 q 747 872 757 883 q 719 860 736 861 z "},"H":{"ha":828,"x_min":-67,"x_max":1111,"o":"m 936 863 q 987 901 961 888 q 1031 914 1013 914 q 1058 894 1054 914 q 1042 843 1058 881 q 1001 755 1026 806 q 943 646 975 704 q 882 532 911 588 q 1017 549 965 543 q 1072 553 1069 554 q 1058 515 1111 535 q 847 468 1006 496 q 753 299 801 383 q 663 142 704 214 q 590 19 621 69 q 551 -47 560 -32 q 509 -91 533 -78 q 463 -104 485 -104 q 431 -96 443 -104 q 421 -74 419 -87 q 449 -12 422 -64 q 516 113 475 39 q 606 275 557 188 q 703 444 656 363 q 545 421 624 433 q 389 389 467 408 q 305 242 347 314 q 228 110 263 169 q 169 8 193 50 q 136 -47 144 -33 q 94 -91 118 -78 q 47 -104 69 -104 q 17 -96 29 -104 q 7 -74 6 -87 q 27 -25 7 -65 q 79 74 47 15 q 152 206 111 133 q 235 353 193 279 q 90 319 156 333 q -17 306 24 306 q -65 332 -67 306 q -38 358 -65 344 q 37 384 -11 371 q 149 411 85 397 q 285 439 213 425 q 378 599 336 528 q 439 699 419 669 q 474 772 465 740 q 485 826 483 804 q 479 872 486 853 q 556 924 519 924 q 590 903 576 924 q 606 843 604 883 q 592 785 606 822 q 554 698 578 747 q 499 589 531 649 q 431 464 467 529 q 589 490 510 478 q 743 513 668 501 q 792 599 763 544 q 851 708 821 654 q 905 807 881 763 q 936 863 929 851 z "},"I":{"ha":274,"x_min":-207,"x_max":394,"o":"m 268 872 q 344 924 308 924 q 379 903 365 924 q 394 843 393 883 q 376 780 394 825 q 328 673 358 735 q 259 538 299 611 q 177 389 219 464 q 93 242 135 314 q 17 110 51 169 q -42 8 -18 50 q -75 -47 -67 -33 q -118 -91 -93 -78 q -164 -104 -143 -104 q -195 -96 -183 -104 q -206 -74 -207 -87 q -190 -33 -206 -67 q -147 49 -174 0 q -85 159 -119 97 q -14 286 -51 221 q 61 417 24 351 q 131 538 99 482 q 188 635 163 593 q 226 699 214 678 q 263 772 253 740 q 274 826 272 804 q 268 872 275 853 z "},"J":{"ha":453,"x_min":-164,"x_max":821,"o":"m 785 908 q 814 888 807 899 q 806 867 821 878 q 753 847 792 857 q 647 828 714 838 q 587 696 621 771 q 514 539 553 621 q 434 373 475 457 q 353 213 393 289 q 275 72 313 136 q 207 -32 238 8 q 135 -86 179 -68 q 42 -104 90 -104 q -37 -92 1 -104 q -104 -55 -75 -79 q -149 6 -133 -31 q -158 89 -164 42 q -149 122 -157 106 q -128 150 -140 138 q -105 169 -117 163 q -83 176 -93 176 q -69 170 -75 176 q -67 149 -64 164 q -72 95 -69 122 q -67 45 -74 68 q -43 7 -61 22 q 11 -12 -25 -8 l 18 -12 q 98 31 57 -12 q 181 146 139 75 q 267 306 224 217 q 354 488 311 396 q 439 665 397 579 q 519 814 481 751 q 443 801 481 808 q 372 786 406 793 q 312 774 339 779 q 264 769 285 769 q 229 778 242 769 q 218 807 217 786 q 253 841 218 826 q 341 867 288 856 q 459 887 394 879 q 585 900 524 894 q 642 931 615 931 q 668 921 654 931 q 679 906 675 918 q 746 910 713 910 q 766 909 757 910 q 785 908 775 908 z "},"K":{"ha":636,"x_min":-103,"x_max":974,"o":"m 442 396 q 464 282 451 339 q 490 172 476 225 q 518 74 504 119 q 544 -7 532 28 q 562 -91 565 -61 q 546 -136 558 -121 q 506 -157 531 -153 q 494 -158 501 -158 q 456 -130 475 -158 q 422 -56 438 -101 q 394 44 407 -11 q 371 151 381 99 q 354 249 361 204 q 343 317 347 293 q 216 214 268 256 q 151 161 164 172 q 72 26 106 82 q 29 -47 39 -31 q -14 -91 11 -78 q -60 -104 -39 -104 q -91 -96 -79 -104 q -101 -74 -103 -87 q -85 -33 -101 -67 q -42 49 -69 0 q 19 159 -15 97 q 90 286 53 221 q 165 417 128 351 q 235 538 203 482 q 292 635 267 593 q 331 699 318 678 q 367 772 357 740 q 378 826 376 804 q 372 872 379 853 q 450 924 413 924 q 483 903 469 924 q 499 843 497 883 q 481 778 499 825 q 431 669 463 732 q 360 532 400 607 q 276 381 319 457 q 404 485 333 428 q 542 599 475 543 q 663 700 608 654 q 740 768 717 746 q 785 819 771 799 q 807 853 800 840 q 814 878 815 868 q 858 904 833 896 q 907 913 883 913 q 955 899 936 913 q 967 860 974 886 q 940 825 964 850 q 878 764 917 800 q 788 683 839 728 q 678 591 736 639 q 560 493 621 543 q 442 396 499 443 z "},"L":{"ha":292,"x_min":-314,"x_max":508,"o":"m 461 -19 q 503 -43 497 -31 q 473 -67 508 -56 q 356 -90 438 -79 q 135 -111 275 -101 q 20 -124 76 -115 q -86 -140 -36 -132 q -178 -153 -136 -147 q -249 -160 -219 -160 q -312 -121 -314 -160 q -280 -93 -311 -106 q -196 -69 -249 -81 q -161 3 -190 -53 q -90 136 -132 60 q 3 300 -47 213 q 99 467 53 388 q 182 610 144 547 q 236 699 219 672 q 272 772 263 740 q 282 826 281 804 q 276 872 283 853 q 354 924 319 924 q 388 903 375 924 q 403 843 401 883 q 385 780 403 825 q 337 673 367 735 q 267 538 307 611 q 185 389 228 464 q 101 242 143 314 q 25 110 60 169 q -34 8 -10 50 q -67 -47 -58 -33 q -67 -49 -67 -49 q -68 -50 -68 -49 q 196 -27 64 -35 q 461 -19 328 -19 z "},"M":{"ha":932,"x_min":-194,"x_max":1054,"o":"m 475 -74 q 501 -10 476 -58 q 562 105 525 39 q 644 247 599 171 q 732 397 689 324 q 811 531 775 469 q 868 629 847 593 q 713 455 789 536 q 574 310 638 374 q 466 203 511 247 q 403 139 421 158 q 353 100 379 111 q 306 89 326 89 q 272 99 285 89 q 242 124 253 104 q 238 190 236 136 q 247 317 240 244 q 261 473 253 390 q 276 626 269 556 q 212 494 247 565 q 140 353 176 424 q 67 215 103 282 q 2 92 32 147 q -49 -1 -28 38 q -76 -53 -69 -39 q -115 -95 -93 -82 q -157 -108 -137 -108 q -184 -100 -174 -108 q -194 -78 -194 -92 q -180 -38 -194 -71 q -141 44 -165 -6 q -85 153 -117 93 q -20 279 -54 214 q 49 408 14 344 q 113 528 83 472 q 166 625 143 583 q 201 688 189 667 q 233 760 225 728 q 242 814 242 792 q 233 858 242 839 l 246 875 q 276 910 258 899 q 313 921 294 921 q 343 912 329 921 q 364 883 357 903 q 378 780 375 851 q 378 618 381 708 q 372 430 376 528 q 364 246 368 332 q 490 386 428 319 q 609 510 553 453 q 710 612 665 567 q 785 688 756 657 q 850 763 824 728 q 892 822 876 797 q 921 875 910 851 q 942 904 936 896 q 971 913 949 913 l 976 913 l 979 913 q 1028 890 1007 910 q 1051 831 1049 869 q 1037 744 1054 794 q 994 641 1019 693 q 943 542 969 589 q 901 468 917 496 q 807 299 856 383 q 717 142 758 214 q 644 19 675 69 q 606 -47 614 -32 q 563 -91 588 -78 q 517 -104 539 -104 q 485 -96 497 -104 q 475 -74 474 -87 z "},"N":{"ha":654,"x_min":-194,"x_max":832,"o":"m 710 863 q 760 901 735 888 q 804 914 786 914 q 832 894 828 914 l 822 869 q 797 807 822 860 q 733 679 772 754 q 647 517 694 604 q 556 349 600 429 q 476 204 511 268 q 424 114 440 140 q 392 42 400 74 q 383 -12 383 10 q 392 -57 383 -37 q 378 -74 385 -67 q 363 -89 371 -82 q 349 -100 356 -96 q 333 -106 342 -104 q 321 -108 325 -108 q 285 -101 303 -108 q 260 -78 268 -94 q 256 -27 257 -69 q 255 78 254 15 q 258 217 256 142 q 263 369 260 293 q 269 513 265 444 q 276 628 272 581 q 213 496 249 567 q 141 353 178 425 q 68 215 104 282 q 2 92 32 147 q -49 -1 -28 38 q -76 -53 -69 -39 q -115 -95 -93 -82 q -157 -108 -137 -108 q -184 -100 -174 -108 q -194 -78 -194 -92 q -180 -38 -194 -71 q -141 44 -165 -6 q -85 153 -117 93 q -20 279 -54 214 q 49 408 14 344 q 113 528 83 472 q 166 625 143 583 q 201 688 189 667 q 233 760 225 728 q 242 814 242 792 q 233 858 242 839 l 246 875 q 276 910 258 899 q 313 921 294 921 q 343 912 329 921 q 364 883 357 903 q 377 793 372 860 q 384 638 382 726 q 387 447 386 549 q 386 253 388 346 q 483 443 431 343 q 583 631 536 543 q 665 781 631 718 q 710 863 700 844 z "},"O":{"ha":1260,"x_min":25,"x_max":1322,"o":"m 447 -1 q 606 19 522 -1 q 771 78 689 40 q 927 171 853 117 q 1058 291 1001 225 q 1149 434 1115 357 q 1183 594 1183 511 q 1178 679 1183 633 q 1151 765 1172 725 q 1085 831 1129 804 q 965 857 1042 857 q 786 831 879 857 q 604 761 693 806 q 435 658 515 717 q 295 531 356 599 q 199 390 235 463 q 164 249 164 318 q 185 136 164 183 q 245 58 207 89 q 335 13 283 28 q 447 -1 388 -1 m 983 932 q 1126 908 1063 932 q 1233 839 1189 883 q 1299 734 1276 794 q 1322 600 1322 674 q 1280 428 1322 514 q 1167 263 1238 342 q 1006 117 1097 185 q 819 1 915 50 q 630 -77 724 -49 q 458 -106 536 -106 q 299 -85 376 -106 q 160 -23 221 -65 q 62 85 99 19 q 25 243 25 151 q 64 431 25 342 q 170 596 103 519 q 330 735 238 672 q 528 841 422 797 q 751 908 635 885 q 983 932 867 932 z "},"P":{"ha":538,"x_min":-39,"x_max":836,"o":"m 351 404 q 473 445 410 415 q 589 521 536 475 q 676 627 642 567 q 711 763 710 688 q 702 813 711 793 q 677 843 693 832 q 641 858 661 854 q 600 863 621 863 q 579 862 589 863 q 560 860 569 861 q 561 843 561 854 q 542 775 561 822 q 491 667 522 728 q 423 537 460 606 q 351 404 386 468 m -37 -74 q -17 -23 -37 -65 q 35 76 4 19 q 102 196 67 133 q 165 308 138 258 q 146 332 146 314 q 160 349 146 340 q 199 365 175 357 q 199 367 199 367 q 200 368 200 367 q 244 444 219 401 q 297 533 269 488 q 349 623 324 579 q 394 699 375 667 q 427 763 414 729 q 440 833 440 797 q 319 803 382 818 q 196 788 256 788 q 165 791 182 788 q 147 814 147 794 q 170 837 147 825 q 229 860 193 849 q 308 881 265 871 q 389 900 350 892 q 458 914 428 908 q 497 921 488 919 l 496 922 q 553 933 524 929 q 613 936 583 936 q 694 926 654 936 q 766 895 735 917 q 817 840 797 874 q 836 758 836 807 q 797 621 836 689 q 698 496 757 553 q 570 399 639 439 q 444 347 501 360 l 304 318 q 165 85 225 179 q 81 -53 106 -8 q 43 -94 65 -82 q 1 -107 21 -107 q -28 -98 -17 -107 q -37 -74 -39 -89 z "},"Q":{"ha":1296,"x_min":25,"x_max":1322,"o":"m 25 243 q 64 431 25 342 q 170 596 103 519 q 330 735 238 672 q 528 841 422 797 q 751 908 635 885 q 983 932 867 932 q 1126 908 1063 932 q 1233 839 1189 883 q 1299 734 1276 794 q 1322 600 1322 674 q 1289 447 1322 524 q 1198 299 1256 371 q 1065 165 1140 228 q 907 50 990 101 q 928 53 918 53 q 944 56 938 54 q 1031 67 990 63 q 1106 74 1072 71 q 1162 79 1139 78 q 1194 81 1185 81 l 1200 81 q 1217 72 1214 81 q 1197 51 1219 64 q 1118 22 1174 38 q 961 -11 1063 6 q 891 -25 946 -14 q 763 -52 836 -36 q 606 -86 689 -68 q 449 -120 522 -104 q 322 -148 375 -136 q 254 -162 268 -160 q 182 -178 214 -172 q 126 -183 150 -183 q 78 -151 76 -183 q 100 -125 78 -139 q 161 -101 122 -112 q 250 -78 200 -89 q 256 -76 253 -76 q 264 -75 260 -76 q 169 -29 213 -57 q 93 38 125 -1 q 43 128 61 78 q 25 243 25 179 m 164 249 q 185 136 164 183 q 245 58 207 89 q 335 13 283 28 q 447 -1 388 -1 q 606 19 522 -1 q 771 78 689 40 q 927 171 853 117 q 1058 291 1001 225 q 1149 434 1115 357 q 1183 594 1183 511 q 1178 679 1183 633 q 1151 765 1172 725 q 1085 831 1129 804 q 965 857 1042 857 q 786 831 879 857 q 604 761 693 806 q 435 658 515 717 q 295 531 356 599 q 199 390 235 463 q 164 249 164 318 z "},"R":{"ha":747,"x_min":-39,"x_max":836,"o":"m 81 -53 q 43 -94 65 -82 q 1 -107 21 -107 q -28 -98 -17 -107 q -37 -74 -39 -89 q -25 -42 -37 -68 q 8 22 -12 -17 q 53 106 28 60 q 106 200 79 153 q 157 291 132 247 q 200 368 182 335 q 212 390 206 379 q 225 413 218 400 q 239 435 232 424 q 253 460 246 447 q 290 523 271 490 q 327 587 308 556 q 363 647 346 618 q 394 699 381 676 q 427 763 414 729 q 440 833 440 797 q 319 803 382 818 q 196 788 256 788 q 165 791 182 788 q 147 814 147 794 q 170 837 147 825 q 229 860 193 849 q 308 881 265 871 q 389 900 350 892 q 458 914 428 908 q 497 921 488 919 l 496 922 q 553 933 524 929 q 613 936 583 936 q 694 926 654 936 q 766 895 735 917 q 817 840 797 874 q 836 758 836 807 q 797 621 836 689 q 698 496 757 553 q 570 399 639 439 q 444 347 501 360 l 383 335 q 397 320 390 328 q 410 304 403 313 q 439 269 419 293 q 482 215 458 246 q 532 151 506 185 q 583 88 558 118 q 626 35 607 58 q 654 3 644 13 q 727 -90 708 -51 q 718 -143 746 -128 q 701 -147 713 -147 q 641 -128 679 -147 q 561 -67 603 -108 q 505 -1 535 -40 q 445 81 475 39 q 388 164 415 124 q 336 235 360 204 q 313 267 324 251 q 292 296 301 282 q 160 77 217 165 q 81 -53 104 -11 m 561 843 q 542 775 561 822 q 491 667 522 728 q 423 537 460 606 q 351 404 386 468 q 473 445 410 415 q 589 521 536 475 q 676 627 642 567 q 711 763 710 688 q 702 813 711 793 q 677 843 693 832 q 641 858 661 854 q 600 863 621 863 q 579 862 589 863 q 560 860 569 861 q 561 843 561 854 z "},"S":{"ha":713,"x_min":-81,"x_max":789,"o":"m 633 253 q 615 144 642 193 q 541 58 589 96 q 432 -10 493 19 q 308 -60 371 -39 q 190 -94 246 -81 q 97 -117 133 -108 q 25 -132 57 -126 q -31 -137 -7 -137 q -79 -106 -81 -137 q -60 -67 -79 -83 q -14 -40 -42 -51 q 43 -19 14 -28 q 93 -7 72 -11 q 172 10 126 0 q 265 32 217 19 q 359 62 313 44 q 442 102 406 79 q 502 155 479 125 q 525 224 525 185 q 501 300 525 268 q 439 358 476 332 q 356 408 401 383 q 266 464 310 433 q 187 536 222 494 q 133 636 151 578 q 131 724 119 685 q 172 796 143 764 q 244 852 201 828 q 335 892 288 876 q 433 916 383 908 q 525 924 483 924 q 599 919 554 924 q 686 899 644 914 q 758 860 728 885 q 789 796 789 836 q 767 759 789 772 q 725 746 744 746 q 688 762 700 746 q 660 797 675 778 q 623 831 646 815 q 554 847 600 847 q 489 842 526 847 q 413 827 451 838 q 340 801 375 817 q 280 765 304 786 q 247 718 256 744 q 256 660 239 692 q 314 584 278 617 q 392 522 350 551 q 476 466 433 493 q 554 408 519 439 q 611 339 589 376 q 633 253 633 301 z "},"T":{"ha":417,"x_min":-87,"x_max":1063,"o":"m 296 389 q 213 242 254 314 q 136 110 171 169 q 77 8 101 50 q 44 -47 53 -33 q 1 -91 26 -78 q -44 -104 -24 -104 q -76 -96 -64 -104 q -86 -74 -87 -87 q -61 -15 -86 -64 q 2 103 -36 33 q 86 253 40 172 q 175 409 132 335 q 253 542 218 483 q 303 626 288 601 q 259 622 279 624 q 221 621 239 621 q 174 625 193 621 q 102 677 103 644 q 168 742 101 710 q 188 732 176 736 q 213 726 197 729 q 247 722 228 722 q 311 731 281 722 q 372 750 342 739 q 385 799 382 776 q 389 838 389 821 q 388 872 390 857 q 464 924 428 924 q 499 903 485 924 q 514 843 513 883 q 507 814 513 832 q 496 785 501 796 q 656 827 569 806 q 821 867 743 849 q 957 897 899 885 q 1032 908 1015 908 l 1035 908 q 1056 892 1050 906 q 1057 863 1063 879 q 1035 829 1051 846 q 986 803 1018 813 q 908 779 965 797 q 774 739 851 761 q 608 693 696 717 q 436 651 519 669 q 408 596 426 631 q 369 523 390 561 q 328 449 349 485 q 296 389 308 413 z "},"U":{"ha":886,"x_min":-33,"x_max":1058,"o":"m 186 -12 q 139 -53 164 -33 q 90 -89 114 -74 q 43 -114 65 -104 q 4 -124 21 -124 q -23 -112 -12 -124 q -33 -74 -33 -101 q -6 3 -33 -53 q 64 131 22 58 q 154 284 106 203 q 244 439 203 365 q 338 599 296 528 q 399 699 379 669 q 434 772 425 740 q 444 826 443 804 q 439 872 446 853 q 515 924 479 924 q 550 903 536 924 q 565 843 564 883 q 551 785 565 822 q 514 698 538 747 q 458 589 490 649 q 390 464 426 529 q 292 293 344 383 q 196 125 240 203 q 377 288 282 208 q 569 453 472 367 q 759 640 665 540 q 936 863 853 739 q 987 901 961 888 q 1031 914 1013 914 q 1058 894 1054 914 q 1042 843 1058 881 q 1001 755 1026 806 q 943 646 975 704 q 882 532 911 588 q 817 414 851 476 q 747 291 782 351 q 679 174 711 231 q 620 72 647 117 q 575 -6 593 26 q 551 -47 557 -37 q 509 -91 533 -78 q 463 -104 485 -104 q 431 -96 443 -104 q 421 -74 419 -87 q 436 -40 422 -68 q 474 32 450 -11 q 528 129 497 75 q 592 242 558 183 q 659 361 625 301 q 724 474 693 421 q 701 451 715 465 q 671 419 686 436 q 640 387 656 403 q 611 361 624 371 q 563 321 597 350 q 486 254 529 292 q 395 174 443 217 q 306 94 347 132 q 231 28 264 57 q 186 -12 199 0 z "},"V":{"ha":524,"x_min":-190,"x_max":913,"o":"m 901 894 q 887 813 913 863 q 811 701 861 763 q 691 571 761 640 q 543 431 621 501 q 386 292 465 360 q 237 165 307 224 q 112 60 167 106 q 29 -12 57 14 q -10 -47 13 -28 q -58 -83 -32 -67 q -110 -112 -83 -100 q -160 -124 -136 -124 q -190 -74 -190 -119 q -162 3 -190 -53 q -93 131 -135 58 q -3 284 -51 203 q 88 439 46 365 q 181 599 139 528 q 242 699 222 669 q 277 772 268 740 q 288 826 286 804 q 282 872 289 853 q 358 924 322 924 q 393 903 379 924 q 408 843 407 883 q 394 785 408 822 q 357 698 381 747 q 301 589 333 649 q 233 464 269 529 q 135 293 188 383 q 39 125 83 203 q 171 251 96 181 q 326 398 246 322 q 483 549 406 474 q 624 687 561 624 q 729 797 688 750 q 779 863 771 843 q 830 901 804 888 q 874 914 856 914 q 901 894 897 914 z "},"W":{"ha":950,"x_min":-171,"x_max":1386,"o":"m -171 -65 q -143 11 -171 -44 q -74 139 -115 67 q 17 292 -32 211 q 107 447 65 374 q 200 607 158 536 q 261 707 242 678 q 297 781 288 749 q 307 835 306 813 q 301 881 308 861 q 378 932 342 932 q 413 912 399 932 q 428 851 426 892 q 414 793 428 831 q 376 706 400 756 q 321 597 353 657 q 253 472 289 538 q 155 301 207 392 q 58 133 103 211 q 240 296 144 217 q 431 462 335 375 q 622 648 528 549 q 799 871 715 747 q 849 909 824 896 q 893 922 875 922 q 921 903 917 922 q 896 833 921 888 q 831 702 871 778 q 744 540 792 626 q 651 373 696 453 q 569 229 606 293 q 515 136 532 165 q 648 263 574 192 q 802 408 722 333 q 959 558 882 483 q 1099 696 1036 633 q 1204 805 1163 758 q 1253 871 1246 851 q 1303 909 1278 896 q 1347 922 1329 922 q 1375 903 1371 922 q 1360 821 1386 871 q 1285 710 1335 771 q 1165 579 1235 649 q 1017 439 1094 510 q 860 300 939 368 q 710 173 781 232 q 585 68 640 114 q 503 -4 531 22 q 464 -39 486 -19 q 416 -75 442 -58 q 364 -103 390 -92 q 314 -115 338 -115 q 290 -97 296 -112 q 283 -65 283 -81 q 311 11 283 -44 q 381 139 339 67 q 471 292 422 211 q 561 447 519 374 q 575 471 567 458 q 552 447 565 461 q 525 418 539 432 q 498 391 511 404 q 474 369 485 378 q 426 329 460 358 q 349 263 392 300 q 258 183 306 225 q 169 103 211 140 q 94 36 126 65 q 49 -4 61 7 q 1 -45 26 -25 q -48 -81 -24 -65 q -94 -106 -72 -96 q -133 -115 -117 -115 q -160 -104 -150 -115 q -171 -65 -171 -93 z "},"X":{"ha":635,"x_min":-433,"x_max":760,"o":"m 19 832 q 20 911 8 882 q 61 940 32 940 q 122 914 88 940 q 160 863 138 901 q 207 769 182 824 q 260 649 232 714 q 314 519 288 583 q 384 573 350 547 q 447 621 418 599 q 497 658 476 643 q 528 679 518 674 q 591 731 569 706 q 624 775 613 756 q 638 819 636 799 q 703 838 674 838 q 748 813 736 838 q 740 739 760 788 q 696 689 733 724 q 603 610 658 654 q 483 515 549 565 q 356 419 418 465 q 441 205 413 281 q 481 100 469 129 q 489 53 490 75 q 479 14 488 31 q 458 -12 471 -3 q 435 -22 446 -22 q 419 -17 425 -22 q 399 22 414 -11 q 365 104 385 54 q 320 219 344 154 q 268 354 296 283 q 246 338 257 346 q 225 322 235 329 q 124 251 178 289 q 15 176 69 214 q -92 102 -40 138 q -185 38 -143 67 q -257 -12 -228 8 q -294 -37 -286 -32 q -360 -60 -326 -60 q -413 -42 -393 -60 q -422 -6 -433 -24 q -388 22 -419 -1 q -307 81 -357 46 q -195 160 -257 117 q -69 247 -133 203 q 56 333 -6 292 q 163 407 117 375 q 194 429 178 418 q 228 454 210 440 q 168 601 194 539 q 131 693 142 663 q 97 766 115 739 q 60 808 78 793 q 19 832 40 825 z "},"Y":{"ha":754,"x_min":10,"x_max":943,"o":"m 249 150 q 163 85 204 107 q 89 64 121 64 q 29 89 53 64 q 17 110 25 93 q 15 166 10 128 q 44 270 19 204 q 129 439 69 336 q 223 599 182 528 q 283 699 264 669 q 319 772 310 740 q 329 826 328 804 q 324 872 331 853 q 400 924 364 924 q 435 903 421 924 q 450 843 449 883 q 436 785 450 822 q 399 698 422 747 q 343 589 375 649 q 275 464 311 529 q 235 388 256 429 q 201 312 215 347 q 181 253 186 276 q 186 229 176 229 q 204 239 193 229 q 356 369 281 307 q 506 503 431 432 q 660 660 582 574 q 821 863 738 746 q 872 901 846 888 q 915 914 897 914 q 943 894 939 914 q 927 843 943 881 q 885 755 911 806 q 828 646 860 704 q 767 532 796 588 q 694 401 736 476 q 608 246 653 326 q 517 87 563 165 q 435 -57 472 8 q 374 -167 399 -122 q 343 -221 349 -211 q 300 -265 325 -251 q 254 -278 275 -278 q 223 -269 235 -278 q 213 -247 211 -261 q 234 -201 213 -242 q 289 -97 256 -160 q 365 42 322 -35 q 452 197 408 119 q 537 348 496 275 q 608 474 578 421 q 585 451 600 465 q 556 419 571 436 q 524 387 540 403 q 496 361 508 371 q 440 315 474 343 q 369 255 406 286 q 299 195 332 224 q 249 150 267 167 z "},"Z":{"ha":551,"x_min":-157,"x_max":865,"o":"m 292 -111 q 177 -124 233 -115 q 71 -140 121 -132 q -21 -153 21 -147 q -92 -160 -62 -160 q -156 -121 -157 -160 q -133 -97 -154 -108 q -75 -78 -111 -86 q -33 -26 -65 -64 q 49 66 0 13 q 157 185 97 119 q 281 320 217 251 q 408 458 344 389 q 529 588 472 526 q 632 697 586 649 q 704 772 678 744 l 650 772 l 644 772 q 572 769 622 772 q 466 761 521 765 q 364 753 411 757 q 300 749 317 750 q 271 747 285 747 q 243 746 257 746 q 180 756 203 746 q 163 794 157 767 q 183 821 165 810 q 235 838 203 832 q 308 846 267 843 q 418 851 353 849 q 544 853 483 853 q 585 852 558 853 q 646 850 613 851 q 715 847 679 849 q 779 842 750 844 q 828 837 808 840 q 851 831 849 833 q 862 824 858 829 q 862 812 865 818 q 847 799 858 806 q 814 786 836 792 q 754 706 793 754 q 666 598 715 657 q 560 474 617 539 q 444 342 503 408 q 330 214 386 276 q 226 99 274 151 q 142 8 178 47 q 89 -50 107 -32 q 353 -27 221 -35 q 618 -19 485 -19 q 660 -43 654 -31 q 630 -67 665 -56 q 513 -90 594 -79 q 292 -111 432 -101 z "},"a":{"ha":486,"x_min":-39,"x_max":503,"o":"m 122 82 q 190 103 151 82 q 263 155 228 124 q 323 222 297 186 q 353 286 349 257 q 355 328 357 315 q 329 346 353 342 l 321 346 q 251 323 290 346 q 176 267 211 300 q 116 197 142 233 q 86 135 90 161 q 122 82 79 90 m 340 31 q 308 2 325 11 q 268 -7 292 -7 q 244 8 250 -4 q 240 38 238 21 q 254 67 243 49 q 279 103 265 86 l 274 99 q 231 75 256 92 q 178 42 207 58 q 116 12 149 25 q 47 -1 83 -1 q 35 -1 40 -1 q 22 0 29 -1 q -26 34 -14 7 q -35 97 -39 61 q -15 172 -31 133 q 19 236 0 210 q 81 304 46 274 q 155 357 115 335 q 238 392 194 379 q 324 404 281 404 q 424 386 378 404 q 445 381 432 383 q 472 374 458 378 q 494 363 485 369 q 500 344 503 357 q 488 315 499 339 q 462 260 478 292 q 427 192 446 228 q 391 122 408 156 q 360 64 374 89 q 340 31 346 39 z "},"b":{"ha":538,"x_min":-42,"x_max":544,"o":"m 69 29 q 35 6 54 14 q 1 -1 17 -1 q -30 7 -18 -1 q -39 29 -42 15 q -19 75 -39 38 q 33 169 1 113 q 106 295 65 225 q 189 439 147 365 q 276 599 240 528 q 332 699 313 669 q 367 772 358 740 q 378 826 376 804 q 372 872 379 853 q 449 924 413 924 q 483 903 469 924 q 499 843 497 883 q 480 776 499 822 q 431 670 461 731 q 364 542 400 610 q 293 408 328 474 q 351 425 322 419 q 406 431 379 431 q 454 425 433 431 q 516 390 494 415 q 541 328 538 364 q 528 251 544 293 q 476 165 513 208 q 407 98 446 128 q 326 47 368 68 q 242 13 285 25 q 160 1 199 1 q 111 6 136 1 q 69 29 86 11 m 385 368 q 317 348 353 368 q 251 298 282 328 q 196 233 219 268 q 161 169 172 199 q 155 119 150 139 q 188 99 160 99 q 253 119 218 99 q 321 169 289 139 q 378 233 353 199 q 415 298 404 268 q 421 348 426 328 q 385 368 415 368 z "},"c":{"ha":522,"x_min":-4,"x_max":532,"o":"m 365 378 q 353 377 358 378 q 342 374 349 376 q 282 341 313 361 q 224 294 251 321 q 174 237 196 268 q 140 171 151 206 q 140 119 131 142 q 169 81 149 96 q 218 57 190 65 q 272 47 246 49 l 283 47 q 339 53 311 47 q 394 58 367 58 l 404 58 q 424 53 413 57 q 433 38 435 49 q 397 11 432 21 q 316 -3 361 1 q 228 -8 271 -7 q 172 -10 186 -10 q 96 4 131 -7 q 38 35 61 15 q 6 87 15 56 q 4 163 -4 118 q 57 275 17 226 q 151 356 97 324 q 267 406 206 389 q 385 422 329 422 q 398 422 392 422 q 411 421 404 421 q 441 419 421 421 q 481 411 461 417 q 517 396 501 406 q 531 369 532 386 q 506 338 529 350 q 464 326 482 325 q 429 335 442 328 q 408 352 417 343 q 390 369 399 361 q 365 378 381 376 z "},"d":{"ha":506,"x_min":-22,"x_max":758,"o":"m -19 94 q -7 156 -18 126 q 19 213 4 185 q 78 292 44 254 q 150 358 111 329 q 233 403 189 386 q 324 421 276 421 q 404 407 367 421 q 415 407 408 407 q 429 406 422 407 q 439 422 435 414 q 449 439 443 431 q 536 599 500 528 q 592 699 572 669 q 627 772 618 740 q 638 826 636 804 q 632 872 639 853 q 708 924 672 924 q 743 903 729 924 q 758 843 757 883 q 738 773 758 822 q 686 660 718 724 q 616 526 654 597 q 542 389 578 454 q 411 161 457 239 q 350 56 365 83 q 308 12 332 25 q 261 -1 283 -1 q 231 7 243 -1 q 221 29 219 15 q 244 81 221 40 q 147 33 197 54 q 42 11 97 11 q -8 38 6 14 q -19 94 -22 63 m 133 93 q 191 112 156 92 q 260 163 226 132 q 318 231 293 194 q 344 299 343 268 q 342 342 346 329 q 314 356 339 354 q 245 334 283 357 q 174 277 207 311 q 117 206 140 243 q 92 140 93 168 q 133 93 89 96 z "},"e":{"ha":558,"x_min":-53,"x_max":576,"o":"m -11 -6 l -17 -6 q -40 3 -29 -6 q -51 23 -50 11 q -42 46 -53 35 q -1 63 -31 57 q 11 99 4 79 q 26 131 17 113 q 47 171 36 149 q 36 172 43 172 l 32 174 q 19 187 22 176 q 23 208 17 197 q 44 229 29 219 q 85 240 60 239 q 116 299 101 271 q 140 349 131 326 q 128 349 133 349 q 115 350 122 350 q 100 364 104 353 q 100 387 96 375 q 119 408 104 399 q 158 418 133 418 l 165 418 l 168 418 q 214 420 181 418 q 290 424 247 422 q 381 428 333 426 q 467 431 428 431 q 532 428 506 431 q 565 419 558 426 q 574 390 576 408 q 554 361 571 372 q 516 353 544 356 q 448 348 488 350 q 361 345 408 346 q 267 344 314 344 q 254 304 265 329 q 228 247 243 279 q 312 251 269 250 q 390 251 354 251 q 451 250 426 251 q 482 242 475 249 q 490 213 493 232 q 471 183 488 194 q 441 176 463 179 q 390 172 419 174 q 322 168 360 169 q 246 167 285 167 q 213 167 229 167 q 182 168 197 168 q 151 118 167 142 q 119 74 135 94 l 122 74 q 236 78 176 78 q 369 69 303 78 q 489 36 435 60 q 506 22 503 31 q 506 4 510 13 q 493 -10 503 -4 q 469 -15 483 -15 q 465 -15 467 -15 q 460 -14 463 -14 q 294 5 365 0 q 171 10 224 10 q 64 5 107 10 q -11 -6 21 0 z "},"f":{"ha":585,"x_min":-99,"x_max":603,"o":"m 32 -87 q -10 -131 14 -118 q -57 -144 -35 -144 q -87 -136 -75 -144 q -97 -114 -99 -128 q -84 -82 -97 -107 q -50 -19 -71 -57 q -1 69 -29 19 q 58 174 28 118 q 43 187 47 176 q 42 208 39 197 q 59 229 46 219 q 94 240 72 239 q 128 297 110 271 q 169 347 147 324 l 169 349 q 156 349 163 349 q 142 350 149 350 q 126 364 131 353 q 126 387 122 375 q 145 408 131 399 q 185 418 160 418 l 192 418 l 194 418 q 240 420 207 418 q 317 424 274 422 q 407 428 360 426 q 493 431 454 431 q 558 428 532 431 q 592 419 585 426 q 600 390 603 408 q 581 361 597 372 q 549 353 572 357 q 490 348 525 350 q 414 345 456 346 q 329 344 372 344 l 283 344 q 217 250 247 303 l 224 246 q 324 250 272 249 q 418 251 375 251 q 477 249 453 251 q 508 242 501 247 q 517 213 519 232 q 497 183 514 194 q 466 176 489 179 q 410 172 443 174 q 337 168 376 169 q 257 167 297 167 q 218 167 238 167 q 179 168 199 168 q 81 -3 117 57 q 32 -87 46 -64 z "},"g":{"ha":521,"x_min":-183,"x_max":522,"o":"m 171 93 q 240 113 204 93 q 308 163 276 133 q 360 229 339 193 q 382 299 381 265 q 380 342 383 329 q 351 356 376 354 q 283 334 321 357 q 211 277 244 311 q 154 206 178 243 q 129 140 131 168 q 171 93 126 96 m 40 -228 q 136 -190 93 -228 q 215 -100 179 -153 q 278 10 250 -47 q 329 108 307 68 l 325 104 q 268 63 296 82 q 210 31 240 44 q 148 8 181 17 q 78 0 115 0 q 48 10 60 1 q 29 32 36 18 q 19 62 22 46 q 18 94 17 78 q 31 156 19 126 q 57 213 42 185 q 117 292 82 256 q 194 356 153 329 q 281 399 235 383 q 375 415 328 415 q 442 407 408 415 q 463 404 450 406 q 490 401 476 403 q 513 392 504 399 q 522 374 522 386 q 507 324 522 365 q 472 230 492 282 q 433 128 453 178 q 404 56 414 79 q 338 -84 371 -26 q 271 -181 304 -142 q 205 -243 238 -219 q 140 -281 172 -267 q 119 -287 133 -283 q 90 -294 106 -290 q 60 -300 75 -297 q 38 -303 46 -303 q -46 -290 -6 -303 q -117 -253 -86 -278 q -165 -192 -147 -228 q -183 -110 -183 -156 q -178 -83 -183 -99 q -162 -55 -172 -68 q -140 -32 -153 -42 q -115 -22 -128 -22 q -101 -31 -103 -22 q -97 -50 -99 -40 q -88 -112 -96 -81 q -65 -170 -81 -144 q -24 -212 -50 -196 q 40 -228 1 -228 z "},"h":{"ha":622,"x_min":-19,"x_max":642,"o":"m 100 38 q 63 8 83 17 q 24 -1 42 -1 q -7 7 6 -1 q -17 29 -19 15 q 3 75 -17 38 q 56 169 24 113 q 128 295 88 225 q 211 439 169 365 q 299 599 263 528 q 354 699 335 669 q 390 772 381 740 q 400 826 399 804 q 394 872 401 853 q 471 924 435 924 q 506 903 492 924 q 521 843 519 883 q 506 786 521 826 q 465 693 490 746 q 408 581 439 640 q 347 466 376 522 q 290 363 317 410 q 249 290 264 317 q 322 341 283 315 q 402 387 361 367 q 484 419 443 407 q 564 432 525 432 q 594 426 579 432 q 621 408 610 419 q 637 383 632 397 q 638 354 642 369 q 628 311 640 342 q 597 243 617 281 q 551 165 576 206 q 502 91 526 125 q 456 33 478 57 q 424 7 435 10 q 412 4 417 4 q 401 4 407 4 q 369 26 376 4 q 382 99 361 47 q 388 113 385 106 q 397 131 392 121 q 423 179 408 153 q 452 233 438 206 q 481 288 467 261 q 506 336 496 315 q 502 351 506 344 q 492 358 499 358 q 478 353 485 358 q 377 275 429 321 q 275 183 325 229 q 181 97 225 136 q 100 38 136 57 z "},"i":{"ha":199,"x_min":-40,"x_max":239,"o":"m 236 354 q 227 311 239 342 q 195 243 215 281 q 150 165 175 206 q 101 91 125 125 q 55 33 76 57 q 22 7 33 10 q 10 4 15 4 q 0 4 6 4 q -33 26 -25 4 q -19 99 -40 47 q 8 156 -11 121 q 47 228 26 190 q 87 301 68 265 q 115 360 106 336 q 176 400 132 400 q 216 387 200 397 q 236 354 232 376 z "},"j":{"ha":201,"x_min":-515,"x_max":240,"o":"m -447 -22 q -433 -31 -435 -22 q -429 -50 -431 -40 q -420 -112 -428 -81 q -397 -170 -412 -144 q -356 -212 -382 -196 q -292 -228 -331 -228 q -227 -210 -258 -228 q -168 -162 -196 -192 q -116 -95 -140 -132 q -70 -20 -92 -58 q -31 54 -49 18 q 1 118 -12 90 q 28 174 13 142 q 61 240 44 207 q 92 306 78 274 q 117 360 107 338 q 178 400 133 400 q 217 387 201 397 q 238 354 233 376 q 230 315 240 342 q 202 255 219 289 q 163 183 185 221 q 117 111 140 144 q -51 -152 24 -51 q -192 -281 -126 -253 q -212 -287 -199 -283 q -242 -294 -226 -290 q -272 -300 -258 -297 q -294 -303 -286 -303 q -378 -290 -337 -303 q -449 -253 -418 -278 q -497 -192 -479 -228 q -515 -110 -515 -156 q -510 -83 -515 -99 q -494 -55 -504 -68 q -472 -32 -485 -42 q -447 -22 -460 -22 z "},"k":{"ha":626,"x_min":-17,"x_max":626,"o":"m -12 14 q -17 29 -17 21 q 3 75 -17 38 q 56 169 24 113 q 128 295 88 225 q 211 439 169 365 q 299 599 263 528 q 354 699 335 669 q 390 772 381 740 q 400 826 399 804 q 394 872 401 853 q 471 924 435 924 q 506 903 492 924 q 521 843 519 883 q 505 783 522 825 q 461 685 488 740 q 402 569 435 631 q 340 451 369 507 q 285 353 310 396 q 249 290 260 310 q 303 342 269 317 q 374 388 336 368 q 451 421 411 408 q 525 433 490 433 q 598 409 569 433 q 626 325 626 385 q 595 264 618 290 q 538 217 572 238 q 459 182 504 197 q 360 151 414 167 q 411 126 388 138 q 453 107 435 114 q 482 85 471 100 q 492 50 493 69 q 450 -7 488 1 q 394 7 429 -7 q 324 40 360 21 q 254 80 288 60 q 203 113 221 100 q 193 119 197 115 q 187 113 190 117 q 181 106 183 108 q 108 31 140 61 q 49 3 75 1 q 12 3 29 4 q -12 14 -6 3 m 467 324 q 361 270 410 304 q 271 197 313 236 l 279 193 q 349 217 314 203 q 415 247 385 231 q 466 278 444 263 q 494 307 488 293 q 481 326 494 326 q 474 326 478 326 q 467 324 471 326 z "},"l":{"ha":238,"x_min":-19,"x_max":519,"o":"m 303 389 q 172 161 218 239 q 111 56 126 83 q 69 12 93 25 q 22 -1 44 -1 q -8 7 4 -1 q -18 29 -19 15 q 2 75 -18 38 q 54 169 22 113 q 127 295 86 225 q 210 439 168 365 q 297 599 261 528 q 353 699 333 669 q 388 772 379 740 q 399 826 397 804 q 393 872 400 853 q 469 924 433 924 q 504 903 490 924 q 519 843 518 883 q 499 773 519 822 q 447 660 479 724 q 377 526 415 597 q 303 389 339 454 z "},"m":{"ha":796,"x_min":-15,"x_max":790,"o":"m 47 7 q 35 4 40 4 q 25 4 31 4 q -8 26 0 4 q 6 99 -15 47 q 33 156 14 121 q 72 228 51 190 q 112 301 93 265 q 140 360 131 336 q 201 400 157 400 q 241 387 225 397 q 261 354 257 376 q 260 339 261 346 q 328 376 293 360 q 390 392 363 392 q 451 373 426 392 q 483 319 475 354 q 583 388 529 358 q 690 418 636 418 q 761 392 735 418 q 788 322 788 367 l 788 321 q 783 279 790 307 q 760 217 775 251 q 727 145 746 182 q 690 78 708 108 q 653 26 671 47 q 625 1 636 4 q 601 -3 613 -3 q 569 19 578 -3 q 581 93 561 42 q 596 133 588 110 q 615 181 604 156 q 635 235 625 207 q 656 289 646 263 q 672 342 669 324 q 664 363 675 360 q 647 353 660 364 q 614 326 633 343 q 572 285 594 308 q 525 239 549 263 q 403 110 469 182 q 385 100 394 104 q 367 92 376 96 q 346 89 357 89 q 324 95 335 89 q 308 118 314 101 q 316 163 303 133 q 343 222 329 192 q 364 276 357 251 q 354 310 371 301 q 352 310 353 310 q 349 311 351 311 q 308 289 335 311 q 251 234 282 267 q 188 163 221 201 q 125 90 154 124 q 75 32 96 56 q 47 7 54 8 z "},"n":{"ha":617,"x_min":-26,"x_max":621,"o":"m 44 0 q 14 -6 28 -6 q -19 14 -11 -6 q -22 64 -26 33 q -4 131 -17 94 q 23 201 8 167 q 51 261 38 235 q 71 299 65 288 q 112 343 88 331 q 160 356 136 356 q 200 344 185 356 q 208 314 215 332 q 195 291 203 304 q 179 264 188 278 q 163 237 171 250 q 151 214 156 224 q 154 206 149 208 q 160 204 157 204 q 164 206 163 204 q 235 269 193 231 q 326 344 276 307 q 432 406 376 381 q 543 432 488 432 q 574 426 558 432 q 600 408 589 419 q 616 383 611 397 q 617 354 621 369 q 608 311 619 342 q 576 243 596 281 q 531 165 556 206 q 481 91 506 125 q 436 33 457 57 q 403 7 415 10 q 391 4 396 4 q 381 4 386 4 q 348 26 356 4 q 361 99 340 47 q 385 148 369 118 q 418 211 400 178 q 454 277 436 244 q 485 336 472 310 q 481 351 485 344 q 471 357 478 357 q 457 353 465 357 q 346 263 404 318 q 232 153 288 207 q 128 55 176 99 q 44 0 79 11 z "},"o":{"ha":508,"x_min":15,"x_max":490,"o":"m 376 421 q 460 394 431 421 q 490 307 490 367 q 455 199 490 253 q 367 101 419 144 q 251 29 314 57 q 131 1 188 1 q 89 8 110 1 q 51 28 68 14 q 25 63 35 42 q 15 114 15 85 q 51 230 15 175 q 140 328 86 285 q 258 396 194 371 q 376 421 321 421 m 156 89 q 231 113 188 89 q 313 174 274 138 q 380 253 353 211 q 407 333 407 296 q 396 363 407 353 q 368 374 385 374 q 292 347 335 374 q 211 281 249 319 q 147 198 174 242 q 121 122 121 154 q 156 89 121 89 z "},"p":{"ha":531,"x_min":-190,"x_max":531,"o":"m -60 -246 q -102 -291 -78 -278 q -149 -304 -126 -304 q -178 -296 -167 -304 q -189 -272 -190 -287 q -142 -176 -187 -256 q -11 51 -96 -96 q 27 119 14 96 q 47 157 40 143 q 59 180 54 171 q 74 203 64 189 q 109 276 100 244 q 119 331 118 308 q 114 376 121 357 q 190 426 154 426 q 239 367 231 426 q 329 407 283 393 q 417 421 375 421 q 501 394 471 421 q 531 307 531 367 q 495 199 531 253 q 407 101 460 144 q 291 29 354 57 q 171 1 228 1 q 94 25 126 1 q 88 14 92 19 q 82 1 85 8 q 15 -117 40 -74 q -24 -184 -10 -160 q -44 -220 -37 -208 q -60 -246 -51 -232 m 183 190 q 176 176 179 183 q 161 122 161 146 q 196 89 161 89 q 271 113 228 89 q 353 174 314 138 q 420 253 393 211 q 447 333 447 296 q 436 363 447 353 q 408 374 425 374 q 351 357 383 374 q 288 314 319 340 q 228 255 256 288 q 183 190 200 222 z "},"q":{"ha":467,"x_min":14,"x_max":544,"o":"m 128 1 q 44 28 74 1 q 14 115 14 56 q 49 224 14 169 q 138 322 85 278 q 254 393 190 365 q 374 421 318 421 q 402 417 385 421 q 436 400 419 414 q 489 418 464 418 q 544 372 532 418 q 510 325 535 367 q 453 223 486 283 q 383 91 419 163 q 311 -47 346 19 q 249 -168 276 -114 q 207 -246 221 -222 q 165 -291 189 -278 q 118 -304 140 -304 q 88 -296 100 -304 q 78 -272 76 -287 q 121 -184 79 -257 q 240 24 163 -111 q 183 7 211 13 q 128 1 154 1 m 138 126 q 149 97 138 107 q 176 86 160 86 q 251 113 214 86 q 319 178 288 139 q 373 261 350 217 q 403 343 396 306 q 368 372 401 372 q 297 348 336 372 q 222 287 257 324 q 162 207 186 250 q 138 126 138 164 z "},"r":{"ha":449,"x_min":-33,"x_max":514,"o":"m 436 422 q 499 392 483 422 q 506 324 514 361 q 471 256 497 286 q 410 225 444 225 q 367 260 367 225 q 374 285 367 274 q 390 306 381 296 q 406 326 399 315 q 413 351 413 338 q 412 361 413 354 q 408 368 411 368 q 313 335 364 368 q 213 255 261 303 q 126 151 165 207 q 67 50 88 96 q 40 16 57 31 q 0 1 24 1 q -26 13 -18 1 q -33 40 -33 24 q -16 101 -33 56 q 24 199 1 146 q 67 299 46 251 q 94 365 88 346 q 153 408 110 408 q 188 398 174 408 q 204 363 203 388 q 201 344 204 354 q 194 325 197 333 q 306 395 240 368 q 436 422 372 422 z "},"s":{"ha":414,"x_min":-53,"x_max":460,"o":"m -50 65 q -40 84 -49 76 q -21 97 -32 92 q 3 103 -10 101 q 24 106 15 106 q 61 96 47 104 q 84 78 75 88 q 103 60 93 68 q 128 51 113 53 q 139 50 133 50 q 150 50 144 50 q 203 62 181 50 q 233 92 226 74 q 229 133 240 111 q 179 178 218 156 q 137 199 158 189 q 93 221 115 210 q 44 278 49 243 q 69 347 39 314 q 165 405 100 381 q 326 429 231 429 q 360 428 338 429 q 404 424 382 428 q 443 411 426 419 q 460 386 460 403 q 452 367 460 376 q 434 352 444 358 q 412 342 424 346 q 390 339 400 339 q 352 346 367 339 q 327 361 338 353 q 307 376 317 369 q 281 383 297 383 l 257 383 l 247 383 q 206 368 218 378 q 192 348 193 358 q 201 327 192 338 q 225 308 210 317 q 270 278 250 290 q 307 256 290 267 q 337 233 324 246 q 360 201 350 221 q 376 138 376 169 q 360 78 375 106 q 317 31 344 51 q 257 3 290 11 q 175 -6 226 -6 q 97 -1 138 -6 q 23 13 57 4 q -32 35 -11 22 q -50 65 -53 49 z "},"t":{"ha":335,"x_min":-132,"x_max":1011,"o":"m 46 507 q -26 492 6 497 q -82 486 -58 486 q -131 518 -132 486 q -108 544 -131 531 q -47 569 -86 557 q 42 592 -8 581 q 154 615 76 599 q 325 649 232 631 q 340 678 333 665 q 353 699 347 690 q 388 772 379 740 q 399 826 397 804 q 393 872 400 853 q 469 924 433 924 q 504 903 490 924 q 519 843 518 883 q 501 778 519 824 q 454 674 483 733 q 624 706 546 692 q 736 725 701 719 q 823 736 782 732 q 897 744 864 740 q 953 749 931 747 q 986 750 976 750 l 992 750 q 1008 742 1006 750 q 988 720 1011 733 q 910 691 965 707 q 753 658 854 675 q 708 650 742 657 q 628 633 675 643 q 525 611 582 624 q 408 586 468 599 q 356 487 383 538 q 303 389 328 436 q 172 161 218 239 q 111 56 126 83 q 69 12 93 25 q 22 -1 44 -1 q -8 7 4 -1 q -18 29 -19 15 q 2 75 -18 38 q 54 169 22 113 q 127 295 86 225 q 210 439 168 365 q 275 557 244 500 q 194 539 232 547 q 126 524 156 531 q 75 513 96 518 q 46 507 54 508 z "},"u":{"ha":606,"x_min":-82,"x_max":519,"o":"m -18 0 q -70 24 -58 0 q -75 84 -82 47 q -49 165 -68 121 q -7 248 -29 208 q 33 318 15 288 q 56 360 51 349 q 117 400 72 400 q 156 387 140 397 q 176 354 172 376 q 167 318 178 343 q 142 263 157 293 q 108 201 126 233 q 77 142 90 169 q 58 99 64 115 q 63 82 53 82 q 82 90 69 82 q 185 168 135 125 q 282 251 236 211 q 369 322 328 290 q 444 365 411 354 q 478 372 465 372 q 511 354 503 372 q 516 309 519 336 q 502 249 513 282 q 478 184 492 215 q 453 128 465 153 q 435 92 440 103 q 394 47 418 60 q 346 35 369 35 q 306 47 321 35 q 297 76 290 58 q 312 101 303 86 q 331 133 321 117 q 349 165 340 150 q 361 190 357 181 q 358 199 364 196 q 354 201 356 201 q 349 199 351 201 q 280 140 319 174 q 193 74 240 106 q 92 22 146 43 q -18 0 39 0 z "},"v":{"ha":429,"x_min":-82,"x_max":538,"o":"m 460 410 q 474 411 464 411 q 503 403 490 411 q 525 383 517 396 q 535 354 533 371 q 531 321 538 338 q 492 297 521 321 q 419 238 463 274 q 324 160 376 201 q 215 82 271 118 q 102 22 158 46 q -3 -1 46 -1 q -10 -1 -7 -1 q -18 0 -14 0 q -71 29 -60 4 q -75 91 -82 54 q -49 170 -68 128 q -8 251 -29 213 q 33 320 14 290 q 56 360 51 350 q 117 400 72 400 q 156 387 140 397 q 176 354 172 376 q 168 318 178 343 q 143 263 158 293 q 110 201 128 233 q 80 142 93 169 q 62 99 67 115 q 67 82 57 82 q 85 90 72 82 q 190 175 138 125 q 292 273 243 225 q 383 360 340 321 q 460 410 426 399 z "},"w":{"ha":950,"x_min":44,"x_max":1038,"o":"m 108 0 q 56 24 68 0 q 51 84 44 47 q 78 165 58 121 q 119 248 97 208 q 160 318 142 288 q 182 360 178 349 q 243 400 199 400 q 283 387 267 397 q 303 354 299 376 q 294 318 304 343 q 268 263 283 293 q 235 201 253 233 q 203 142 217 169 q 185 99 190 115 q 189 82 179 82 q 208 90 196 82 q 312 168 261 125 q 408 251 363 211 q 496 322 454 290 q 571 365 538 354 q 604 371 588 371 q 641 344 636 371 q 638 280 646 318 q 612 200 629 242 q 579 128 594 158 q 685 206 632 163 q 789 292 739 250 q 883 366 839 333 q 960 410 926 399 q 974 411 964 411 q 1003 403 990 411 q 1025 383 1017 396 q 1035 354 1033 371 q 1031 321 1038 338 q 988 298 1022 321 q 906 240 954 275 q 799 165 857 206 q 684 90 742 125 q 575 33 626 56 q 488 10 524 10 q 461 14 472 10 q 423 40 431 21 q 424 76 415 58 q 438 101 429 86 q 457 133 447 117 q 475 165 467 150 q 488 190 483 181 q 485 199 490 196 q 481 201 482 201 q 475 199 478 201 q 406 140 446 174 q 319 74 367 106 q 219 22 272 43 q 108 0 165 0 z "},"x":{"ha":546,"x_min":-4,"x_max":590,"o":"m 61 -1 q 26 8 42 -1 q 3 33 10 18 q -1 65 -4 47 q 24 97 3 82 q 61 90 39 90 q 148 115 101 90 q 243 179 194 140 q 218 256 229 218 q 199 326 207 293 q 188 382 190 358 q 188 415 185 406 q 213 445 196 439 q 254 451 231 451 q 288 435 274 449 q 308 403 303 422 q 323 347 314 383 q 343 269 332 311 q 443 372 399 325 q 511 436 488 419 q 525 438 515 438 q 556 430 542 438 q 578 410 569 422 q 588 381 586 397 q 583 349 590 365 q 557 332 576 349 q 510 288 538 315 q 447 228 482 261 q 371 160 411 194 q 386 102 379 128 q 396 61 393 76 q 399 -10 407 11 q 369 -31 390 -31 q 340 -24 358 -31 q 313 11 329 -18 q 278 85 297 40 q 176 24 229 49 q 61 -1 124 -1 z "},"y":{"ha":486,"x_min":4,"x_max":500,"o":"m 474 403 q 499 364 500 392 q 476 284 499 336 q 413 152 454 232 q 317 -43 372 72 q 262 -153 285 -112 q 222 -215 239 -193 q 192 -242 206 -236 q 165 -249 179 -249 q 136 -227 139 -249 q 149 -178 133 -206 l 347 222 q 261 132 307 171 q 176 69 224 97 q 79 40 128 40 q 17 71 31 40 q 12 145 4 101 q 39 238 19 189 q 74 324 58 286 q 117 386 94 372 q 156 400 140 400 q 168 399 165 400 q 172 397 171 399 q 195 371 194 393 q 186 318 196 349 q 160 253 176 288 q 132 190 144 219 q 116 142 119 161 q 128 124 113 124 q 144 128 135 124 q 192 160 165 136 q 247 214 218 183 q 306 278 276 244 q 365 340 336 313 q 418 386 393 368 q 463 404 443 404 q 474 403 471 404 z "},"z":{"ha":626,"x_min":7,"x_max":533,"o":"m 161 76 q 256 85 207 81 q 351 89 306 89 q 429 85 393 89 q 489 69 465 81 q 523 38 513 57 q 522 -10 533 19 q 494 -29 514 -29 q 474 -21 485 -29 q 464 -15 471 -19 q 442 -8 457 -11 q 402 -3 426 -6 q 342 0 378 0 q 242 -4 303 0 q 169 -11 204 -7 q 108 -19 135 -15 q 64 -25 81 -22 q 47 -28 47 -28 q 8 11 7 -15 q 38 72 10 38 q 112 144 65 106 q 207 217 158 182 q 299 283 256 253 q 363 331 342 314 q 255 323 307 331 q 150 299 203 315 q 135 296 144 296 q 112 303 122 296 q 93 323 101 311 q 80 348 85 335 q 74 372 75 361 q 83 396 71 392 q 108 403 94 400 q 304 432 204 432 q 443 418 378 432 q 468 403 454 418 q 491 369 482 388 q 501 336 500 351 q 486 318 501 321 q 409 263 451 293 q 324 201 367 233 q 238 138 281 169 q 161 76 196 106 z "},"":{"ha":714,"x_min":97,"x_max":743,"o":"m 508 308 q 542 296 519 306 q 590 274 565 286 q 632 247 614 261 q 650 222 650 233 q 633 130 650 185 q 592 19 617 75 q 540 -88 568 -37 q 488 -168 511 -139 q 519 -78 499 -125 q 558 18 539 -31 q 592 115 578 67 q 607 204 607 163 q 597 224 607 214 q 573 243 586 235 q 546 258 560 251 q 524 268 532 265 q 548 247 536 260 q 560 217 560 233 q 537 24 560 118 q 456 -149 514 -69 l 456 -140 q 460 -127 456 -139 q 469 -100 464 -115 q 479 -71 475 -85 q 485 -53 483 -57 q 508 67 501 6 q 515 189 515 128 q 514 214 515 204 q 508 229 513 224 q 494 239 503 235 q 471 247 485 243 q 473 240 471 244 q 475 233 475 235 q 472 192 475 217 q 461 143 468 168 q 444 97 454 118 q 421 64 433 75 l 418 64 q 396 97 406 75 q 379 143 386 118 q 369 192 372 168 q 365 233 365 217 q 367 240 365 235 q 369 247 369 244 q 347 239 356 243 q 333 229 338 235 q 326 214 328 224 q 325 189 325 204 q 385 -139 325 21 l 385 -149 q 303 24 326 -69 q 281 217 281 118 q 292 247 281 233 q 317 268 304 260 q 291 257 306 264 q 264 241 276 250 q 242 221 251 232 q 233 194 233 210 q 248 110 233 157 q 283 15 263 64 q 323 -81 303 -33 q 353 -168 343 -129 q 301 -88 329 -139 q 248 19 272 -37 q 207 130 224 75 q 190 222 190 185 q 209 248 190 233 q 251 275 228 263 q 299 297 275 288 q 333 307 324 306 q 317 314 328 310 q 300 318 307 318 q 270 313 286 318 q 240 297 254 307 q 215 275 225 288 q 201 247 204 263 q 166 297 185 271 q 132 352 147 324 q 107 410 117 381 q 97 469 97 440 q 113 506 97 493 q 152 525 129 518 q 199 533 175 532 q 239 535 224 535 q 301 532 269 535 q 363 521 333 529 q 300 519 328 518 q 247 517 272 519 q 196 506 222 514 q 136 476 169 497 q 147 442 139 463 q 163 398 154 421 q 183 354 172 375 q 199 319 193 333 q 249 342 224 331 q 303 354 275 354 q 322 349 304 354 q 346 342 340 343 q 326 362 336 353 q 300 371 315 371 q 253 360 278 371 q 221 350 228 350 q 208 367 215 350 q 195 405 201 383 q 185 447 189 426 q 182 474 182 467 q 201 483 185 479 q 236 490 217 488 q 274 494 256 493 q 297 496 292 496 q 343 494 321 496 q 389 490 365 493 q 302 471 346 478 q 215 450 258 464 q 221 421 218 436 q 235 396 224 406 q 278 400 257 396 q 324 404 300 404 q 337 397 328 404 q 356 379 346 389 q 374 360 365 369 q 388 346 383 350 q 411 357 394 357 q 415 356 414 357 q 418 356 415 356 l 415 340 l 419 338 l 424 340 l 421 356 l 424 356 q 430 356 426 356 q 436 357 433 357 q 453 346 444 357 q 466 360 457 350 q 485 379 475 369 q 503 397 494 389 q 517 404 513 404 q 562 400 540 404 q 606 396 583 396 q 619 421 617 406 q 625 450 622 436 q 538 471 582 464 q 451 490 494 478 q 497 494 475 493 q 543 496 519 496 q 601 492 572 496 q 657 475 629 488 l 658 472 q 655 445 658 465 q 645 404 651 425 q 633 367 639 383 q 619 350 626 350 q 588 360 613 350 q 540 371 563 371 q 515 362 525 371 q 494 342 504 353 q 518 349 500 343 q 538 354 536 354 q 591 342 565 354 q 642 319 617 331 q 658 354 649 333 q 677 398 668 375 q 694 442 686 421 q 704 476 703 463 q 619 514 656 507 q 538 521 583 521 l 493 521 l 478 521 q 539 532 507 529 q 601 535 571 535 q 641 533 617 535 q 688 525 665 532 q 727 506 711 518 q 743 469 743 493 q 733 410 743 440 q 708 352 724 381 q 674 297 693 324 q 639 247 656 271 q 626 275 638 263 q 601 297 615 288 q 570 313 586 307 q 540 318 554 318 q 524 315 533 318 q 508 308 515 311 z "},"":{"ha":657,"x_min":68,"x_max":617,"o":"m 160 535 l 165 540 l 164 533 q 149 472 158 501 q 128 413 139 443 q 111 351 118 382 q 104 289 104 321 q 106 283 104 286 q 128 292 110 283 q 171 313 147 301 q 185 319 175 315 q 206 329 194 324 q 226 338 217 335 q 239 342 236 342 q 258 340 249 342 q 276 338 267 338 q 229 354 253 354 q 224 353 226 353 q 219 350 222 353 q 207 344 214 347 q 193 339 200 342 q 164 327 178 332 q 144 322 150 322 q 139 325 142 322 q 157 441 139 382 q 199 551 175 500 l 208 558 l 208 551 q 204 528 208 540 q 201 515 203 521 q 199 504 200 510 q 190 472 194 489 q 182 440 185 456 q 175 406 178 424 q 172 374 172 389 q 174 367 172 368 q 189 372 181 368 q 207 381 197 376 q 226 389 221 386 q 240 393 235 393 q 256 388 247 393 q 272 376 264 383 q 289 365 283 368 q 299 361 296 361 l 299 369 q 304 392 299 385 q 307 395 306 394 q 311 399 308 396 q 319 407 314 403 l 324 413 l 324 403 q 319 386 324 394 q 317 378 318 382 q 317 371 317 375 l 326 379 l 335 379 l 342 372 l 344 372 l 351 379 l 360 379 l 369 371 q 368 379 369 378 q 367 383 368 382 q 367 388 367 385 q 363 406 363 396 l 363 413 l 367 407 q 381 388 378 394 q 385 376 385 381 q 385 372 386 374 q 385 368 385 371 q 386 365 386 367 q 388 361 386 364 q 400 367 396 364 q 407 372 403 369 q 414 378 411 375 q 428 388 421 383 q 444 393 436 393 q 460 389 450 393 q 469 384 464 386 q 479 379 474 382 q 499 370 490 374 q 513 367 507 367 q 507 415 513 392 q 494 461 501 438 l 482 507 q 478 530 479 518 q 476 553 476 542 l 476 558 l 486 551 q 506 502 496 531 q 526 443 517 474 q 541 383 535 413 q 547 331 547 353 q 544 325 544 325 q 540 322 544 322 q 530 324 535 322 q 518 328 525 325 q 505 333 511 331 q 492 339 499 336 q 467 351 479 346 q 447 356 456 356 q 431 349 444 356 q 410 338 417 343 q 427 340 418 338 q 446 342 436 342 q 473 333 453 342 q 514 313 493 324 q 535 301 525 307 q 554 292 546 296 q 578 283 574 283 q 581 289 581 286 q 574 351 581 321 q 557 413 567 382 q 536 472 546 443 q 521 533 526 501 l 519 540 l 525 535 q 549 497 533 529 q 579 426 564 464 q 606 355 594 389 q 617 310 617 321 q 615 274 617 292 q 608 239 614 257 l 600 235 l 599 235 q 582 242 592 238 q 561 251 572 246 q 538 264 550 258 q 514 276 526 269 q 469 298 490 289 q 438 307 449 307 l 417 307 q 428 303 424 304 q 440 299 433 301 q 456 292 449 296 q 471 285 464 289 q 493 265 476 279 q 529 235 510 251 q 533 231 532 232 q 538 228 535 231 q 576 194 558 210 q 593 171 593 178 q 589 147 593 160 q 555 31 578 89 q 500 -78 532 -26 l 499 -78 l 492 -82 l 492 -74 q 501 -46 492 -68 q 508 -28 504 -36 q 513 -17 511 -19 q 540 72 526 24 q 554 161 554 121 l 553 167 q 535 185 551 169 q 500 218 519 200 q 465 251 481 236 q 447 265 449 265 q 438 268 444 267 q 424 272 431 269 q 411 276 415 275 q 426 265 415 274 q 445 251 436 258 q 460 235 454 244 q 474 208 464 228 q 492 167 483 189 q 509 128 501 146 q 517 104 517 110 q 509 40 517 75 q 490 -31 501 4 q 463 -100 478 -67 q 431 -160 447 -133 l 425 -167 l 425 -158 q 426 -147 425 -154 q 431 -129 428 -139 q 438 -109 433 -119 q 446 -87 442 -99 q 448 -83 447 -85 q 450 -78 449 -81 q 473 17 467 -29 q 479 115 479 63 q 474 127 475 122 q 469 136 472 132 q 456 165 464 147 q 438 203 449 183 q 417 231 431 215 q 389 250 404 247 l 385 250 q 388 236 385 247 q 392 225 390 229 q 396 214 393 221 q 404 190 400 203 q 408 164 408 176 q 393 91 408 125 q 357 25 378 57 l 356 24 l 346 24 l 343 29 l 340 24 l 331 24 l 329 25 q 291 91 306 53 q 276 164 276 129 q 283 197 276 174 q 294 235 289 219 q 297 240 297 240 q 299 245 299 243 q 300 250 299 247 l 296 250 q 294 249 294 249 q 292 247 293 249 q 286 244 286 247 q 272 235 278 240 q 258 219 264 228 q 244 199 251 210 q 231 170 236 185 q 218 143 225 156 q 215 135 217 139 q 211 128 214 132 q 206 114 208 122 l 206 111 q 211 15 206 63 q 236 -78 217 -33 q 238 -81 238 -79 q 239 -83 238 -82 q 253 -124 247 -104 q 260 -158 260 -143 l 260 -168 l 254 -160 q 222 -99 238 -133 q 194 -29 207 -65 q 175 42 182 7 q 168 108 168 78 q 176 129 168 111 q 193 169 183 147 q 212 210 203 190 q 224 233 221 229 q 257 265 239 254 q 265 269 261 268 q 272 274 269 271 q 276 276 275 276 q 256 272 267 275 q 238 265 246 268 q 226 256 236 264 q 203 235 217 247 q 179 213 192 225 q 156 191 167 201 q 139 174 146 181 q 132 167 132 167 l 131 161 q 135 112 131 139 q 148 57 140 85 q 165 3 156 29 q 183 -44 175 -24 q 188 -59 186 -51 q 193 -74 190 -67 l 193 -82 l 186 -78 l 185 -78 q 136 22 156 -29 q 101 125 117 72 q 99 137 100 132 q 94 147 97 142 q 92 171 92 161 q 109 194 92 178 q 147 228 126 210 q 151 231 150 231 q 156 235 153 232 q 192 265 175 251 q 214 285 208 279 q 228 292 221 289 q 244 299 236 296 q 256 303 251 301 q 268 307 261 304 l 247 307 q 215 298 236 307 q 171 276 194 289 q 147 264 158 269 q 124 251 135 258 q 103 242 113 246 q 86 235 93 238 l 85 235 l 76 239 q 69 274 71 257 q 68 310 68 292 q 79 355 68 321 q 106 426 90 389 q 136 497 121 464 q 160 535 151 529 z "},"":{"ha":685,"x_min":128,"x_max":626,"o":"m 606 214 l 601 201 l 604 200 q 606 214 604 210 m 610 232 q 610 234 610 233 q 611 236 611 235 q 612 241 611 239 q 613 246 613 243 q 611 239 611 243 q 610 232 611 235 m 601 115 q 576 91 588 106 q 563 61 565 76 q 571 46 565 57 l 575 33 q 601 115 594 69 m 567 22 q 554 51 561 40 q 531 35 543 44 q 517 13 519 25 q 522 -1 519 6 q 526 -15 524 -8 q 567 22 540 7 m 532 -26 q 536 -22 535 -26 q 541 -16 539 -19 q 546 -10 543 -12 l 549 -8 q 556 1 553 -4 q 532 -26 540 -11 m 518 -40 q 488 -58 504 -46 q 467 -82 471 -69 q 465 -87 465 -85 q 464 -94 465 -90 l 464 -100 q 518 -43 492 -76 l 518 -40 m 460 -11 q 503 15 478 8 q 479 60 493 36 q 447 39 461 58 q 454 14 451 26 q 460 -11 457 1 m 456 -74 q 455 -52 456 -62 q 451 -31 454 -42 q 415 -40 433 -33 q 383 -61 396 -47 l 383 -101 q 456 -74 418 -81 m 456 -86 q 383 -115 414 -93 l 383 -131 q 449 -111 418 -131 q 456 -86 456 -97 m 383 -46 q 451 -19 414 -24 q 444 7 449 -6 q 436 33 440 19 q 383 6 404 33 l 383 -46 m 383 24 q 432 44 407 43 q 426 65 429 56 q 418 85 422 75 l 415 85 q 383 67 394 85 l 383 24 m 383 85 q 414 97 396 94 q 407 114 411 106 q 400 131 403 122 q 383 124 390 131 l 383 85 m 383 139 q 394 142 392 142 q 392 145 393 144 q 390 149 392 146 q 385 160 388 157 l 383 160 l 383 139 m 383 228 l 385 228 q 389 241 388 235 q 393 254 390 247 q 388 256 392 256 q 385 257 386 257 q 383 258 385 257 l 383 228 m 383 274 q 397 267 388 267 q 403 283 400 275 q 408 300 406 292 q 395 303 401 301 q 383 310 389 306 l 383 274 m 383 326 q 395 316 383 319 q 413 313 407 313 q 420 337 417 325 q 426 361 424 349 q 383 379 401 364 l 383 326 m 383 397 q 404 380 392 386 q 429 374 417 374 q 437 406 433 389 q 443 438 440 422 l 440 438 q 383 457 410 438 l 383 397 m 383 471 q 408 455 396 461 q 436 449 421 449 q 443 450 442 449 q 447 508 447 478 l 444 508 q 383 529 411 508 l 383 471 m 383 544 q 411 526 396 533 q 443 519 426 519 l 446 519 q 440 553 446 538 q 413 558 426 557 q 383 558 399 558 l 383 544 m 451 428 q 446 398 449 413 q 440 368 443 383 q 455 350 446 357 q 476 343 464 343 q 490 370 483 357 q 501 397 496 383 q 451 428 469 401 m 456 544 l 456 533 q 456 525 456 529 q 457 515 457 521 q 460 513 460 513 q 463 507 463 507 q 488 481 474 492 q 521 468 503 471 q 524 479 524 474 q 524 492 524 485 q 524 503 524 497 q 521 514 524 508 q 456 544 482 525 m 550 365 q 566 389 558 376 q 581 414 574 401 q 553 427 565 417 q 531 449 540 438 q 523 426 526 438 q 517 403 519 414 q 530 380 522 392 q 550 365 538 368 m 535 496 q 535 479 535 488 q 533 463 535 471 q 554 440 540 451 q 583 425 568 428 l 585 432 q 577 451 582 439 q 569 465 572 463 q 564 468 569 465 q 561 470 563 469 q 558 472 560 471 q 535 496 546 483 m 565 129 q 552 111 560 121 q 536 97 544 101 q 547 87 542 92 q 554 75 551 82 q 589 119 564 101 q 565 129 576 124 m 456 121 l 456 115 q 458 110 456 115 q 463 103 461 107 q 468 96 465 100 q 476 85 472 90 q 482 76 479 79 q 506 97 493 90 q 456 121 481 103 m 428 90 q 436 72 432 83 q 443 51 440 61 q 472 69 454 65 q 446 107 458 93 q 435 102 439 107 q 428 90 431 97 m 410 136 q 416 121 413 129 q 422 106 419 113 q 439 117 429 115 q 427 130 432 124 q 417 143 422 136 q 410 136 413 142 m 397 164 q 401 156 400 160 q 404 147 401 151 q 408 151 404 147 l 403 157 q 400 160 401 160 q 397 164 399 161 m 408 242 q 406 244 406 242 q 403 246 404 244 q 396 225 401 239 l 408 242 m 406 218 q 404 217 404 218 l 406 218 m 413 164 q 409 169 410 167 q 406 174 408 171 q 413 164 407 169 m 418 290 q 413 275 415 283 q 408 260 411 267 q 415 250 410 256 q 426 264 421 257 q 436 278 431 271 q 418 290 426 279 m 469 332 q 436 351 450 336 q 433 342 435 347 q 431 329 432 336 q 427 321 428 325 q 425 314 426 317 q 424 308 425 310 q 430 295 424 301 q 443 288 436 289 q 469 332 458 311 m 456 274 q 474 291 464 283 q 494 307 483 299 q 478 324 485 314 q 465 302 471 313 q 451 281 458 292 q 456 274 454 275 m 519 140 q 562 198 547 160 q 576 269 576 236 q 568 322 576 297 q 499 256 539 289 q 484 244 494 253 q 463 226 474 236 q 446 208 453 217 q 439 194 439 200 l 439 192 q 467 153 446 168 q 514 139 489 139 q 519 140 518 139 m 433 142 q 435 140 435 140 q 436 138 435 139 q 442 131 439 135 q 447 125 444 128 q 448 127 447 126 q 449 129 449 128 q 433 142 438 138 m 429 249 q 438 258 433 253 q 447 267 442 263 q 444 269 444 267 q 437 259 440 264 q 429 249 433 254 m 518 446 q 519 450 518 449 q 519 453 519 451 l 519 457 q 485 470 500 460 q 457 494 469 481 q 456 469 457 482 q 454 444 456 456 q 507 408 469 413 q 513 427 510 418 q 518 446 515 436 m 504 315 q 524 335 515 325 q 543 356 533 344 q 524 369 532 360 q 510 388 515 378 q 485 338 500 361 q 504 315 492 322 m 508 6 q 463 -25 481 -1 q 467 -61 467 -44 q 517 -28 488 -36 q 508 6 515 -11 m 524 93 q 489 65 497 82 q 501 47 496 56 q 511 28 507 38 q 549 63 522 49 q 544 69 546 65 q 539 76 542 74 q 533 85 536 81 q 525 93 529 89 l 524 93 m 599 190 q 586 163 593 176 q 572 139 579 150 q 583 134 578 136 q 594 131 588 132 q 593 143 593 135 q 601 189 593 167 l 599 190 m 372 560 l 368 560 q 315 553 343 560 q 311 536 313 544 q 310 519 310 528 l 313 519 q 344 526 328 519 q 372 544 361 533 l 372 560 m 372 529 q 310 508 343 508 q 308 496 308 504 q 310 473 308 485 q 313 450 311 461 q 319 449 314 449 q 347 455 335 449 q 372 471 360 461 l 372 529 m 372 457 q 314 438 346 438 q 319 406 317 422 q 326 374 322 389 q 352 380 340 374 q 372 397 364 386 l 372 457 m 372 379 q 329 361 354 364 q 335 337 332 349 q 343 313 339 325 q 360 316 349 313 q 372 326 372 319 l 372 379 m 372 310 q 347 301 363 301 q 353 283 350 292 q 358 267 356 275 q 372 274 368 267 l 372 310 m 372 258 q 367 256 369 257 q 363 254 365 256 q 367 242 365 247 q 372 229 369 236 l 372 258 m 372 160 l 371 160 l 361 142 q 372 139 367 142 l 372 160 m 372 124 q 356 131 365 131 l 343 97 q 372 85 360 96 l 372 124 m 372 67 q 340 85 361 85 l 338 85 q 331 65 335 74 q 324 44 326 56 q 349 38 338 43 q 372 24 361 32 l 372 67 m 372 6 q 319 33 351 33 q 312 8 315 21 q 306 -19 308 -6 q 372 -46 340 -24 l 372 6 m 372 -61 q 342 -40 360 -47 q 304 -31 324 -33 q 300 -74 300 -51 q 372 -101 338 -79 l 372 -61 m 372 -115 q 300 -86 342 -93 q 303 -99 301 -93 q 307 -111 304 -104 q 372 -131 338 -131 l 372 -115 m 296 -11 q 301 14 299 1 q 308 39 304 26 q 275 60 294 58 q 251 15 261 36 q 296 -11 275 10 m 292 -100 q 290 -94 290 -97 q 288 -82 290 -87 q 267 -57 283 -69 q 236 -40 250 -44 l 236 -43 q 263 -73 249 -58 q 292 -100 276 -87 m 189 22 q 210 7 200 18 q 228 -15 221 -4 q 233 -1 231 -8 q 238 13 235 6 q 224 35 235 25 q 200 51 213 46 q 197 45 197 49 q 193 38 196 42 q 189 22 192 33 m 222 -26 q 211 -11 217 -18 q 199 1 206 -4 q 210 -11 201 -3 q 216 -19 213 -15 q 222 -26 219 -22 m 153 115 q 163 74 156 94 q 179 33 169 53 q 192 61 183 49 q 178 92 189 79 q 153 115 167 104 m 149 214 q 150 204 150 211 l 150 200 l 153 201 l 149 214 m 143 236 q 144 233 143 233 q 147 225 144 231 l 147 224 l 143 244 l 143 236 m 185 464 q 169 432 175 447 l 171 426 q 199 440 188 429 q 222 463 211 451 q 219 496 218 481 q 186 464 204 475 l 185 464 m 206 365 q 225 380 217 368 q 239 403 233 392 q 225 447 229 424 q 201 426 214 436 q 174 414 189 417 q 188 389 181 401 q 204 365 196 376 l 206 365 m 231 492 q 231 480 231 485 q 233 468 232 475 q 266 481 251 471 q 292 507 281 492 q 294 513 292 507 q 297 515 294 513 l 301 544 q 269 526 286 533 q 233 514 251 519 q 231 492 231 500 m 315 368 q 310 398 313 383 q 304 428 307 413 q 253 397 285 401 q 265 370 258 383 q 279 343 272 357 q 301 350 292 343 q 315 368 310 357 m 328 322 l 319 351 q 285 332 307 336 q 299 310 292 321 q 313 288 306 299 q 326 294 319 289 q 332 307 332 300 l 328 322 m 347 260 q 342 274 344 267 q 338 290 340 282 q 319 278 332 281 q 330 264 325 271 q 340 250 335 257 q 347 260 346 256 m 361 225 l 353 246 q 347 242 349 242 l 361 225 m 360 164 l 347 151 q 353 147 350 150 q 360 164 354 153 m 350 218 q 351 217 351 217 q 350 218 351 218 m 351 172 q 346 168 349 171 q 344 166 344 167 q 343 164 344 165 q 346 167 343 164 l 351 172 m 333 106 q 347 136 340 124 q 343 140 344 139 q 339 143 342 142 q 328 130 333 136 q 318 117 324 124 q 333 106 326 114 m 282 69 q 313 51 300 65 q 320 73 315 61 q 328 92 325 85 q 310 107 322 107 q 296 89 303 97 q 282 69 289 81 m 272 76 q 278 86 275 82 q 285 96 282 90 q 293 105 289 100 q 301 115 297 110 q 300 119 300 117 q 275 106 288 113 q 249 97 263 100 q 272 76 264 89 m 190 129 q 178 124 183 126 q 167 119 172 122 q 200 75 189 103 q 218 97 208 88 l 217 97 l 217 99 q 203 113 210 106 q 190 129 196 121 m 178 269 q 192 198 178 236 q 235 140 207 160 q 240 139 236 139 l 244 139 q 290 154 272 143 q 317 193 307 165 q 309 208 317 199 q 292 226 301 217 q 272 244 282 236 q 257 256 261 251 q 219 288 238 271 q 186 322 201 304 q 178 269 178 297 m 300 274 q 302 277 301 276 q 304 281 303 278 q 290 302 297 292 q 276 324 283 313 q 261 307 271 314 q 281 291 271 299 q 300 274 290 283 m 321 140 q 307 129 315 135 q 308 127 307 128 q 308 125 308 126 q 315 133 311 129 q 321 140 318 136 m 326 249 q 319 259 322 254 q 311 269 315 264 q 308 267 311 267 q 322 253 317 261 l 326 249 m 301 444 q 299 469 300 457 q 297 494 297 482 q 270 469 286 479 q 235 457 254 458 q 241 433 236 447 q 249 408 246 418 q 280 420 265 411 q 301 444 294 429 m 251 315 q 269 338 265 322 q 256 362 263 349 q 244 388 250 375 q 231 369 239 378 q 213 356 224 360 q 251 315 228 333 m 153 189 q 161 146 161 168 q 160 131 161 136 q 172 135 167 133 q 182 139 176 136 q 157 190 168 160 l 153 189 m 238 -28 q 288 -61 267 -36 q 290 -43 289 -51 q 293 -25 290 -35 q 247 6 275 -3 q 242 -11 244 -3 q 238 -28 239 -19 m 229 93 q 217 78 222 86 q 207 63 211 71 q 244 26 229 50 q 265 65 253 46 q 232 90 256 83 l 231 92 l 231 93 l 229 93 m 626 264 q 624 192 626 231 q 615 116 622 154 q 595 42 608 78 q 560 -18 582 7 q 540 -40 549 -29 q 522 -62 532 -51 q 502 -83 511 -74 q 482 -103 493 -93 q 435 -134 461 -122 q 378 -146 410 -146 q 320 -134 346 -146 q 272 -104 294 -122 q 171 19 206 -44 q 133 175 136 83 q 130 219 132 197 q 128 264 128 240 q 140 383 128 326 q 180 481 151 439 q 256 549 208 524 q 378 574 304 574 q 499 549 451 574 q 576 481 547 524 q 615 383 604 439 q 626 264 626 326 z "},"":{"ha":754,"x_min":50,"x_max":704,"o":"m 649 213 q 619 125 642 164 l 653 111 q 668 160 663 135 q 675 213 674 186 l 649 213 m 611 113 q 550 61 588 78 l 593 18 q 623 55 610 36 q 646 96 636 74 l 611 113 m 542 46 l 536 46 q 499 33 515 46 q 471 3 482 19 l 493 -51 q 581 7 544 -29 l 542 46 m 385 -75 q 476 -58 433 -74 l 456 -3 q 442 1 449 0 q 429 3 436 3 q 405 -3 417 3 q 385 -19 393 -10 l 385 -75 m 383 197 l 390 200 q 403 222 403 210 q 395 240 403 233 q 376 247 388 247 q 360 240 367 247 q 353 222 353 232 q 364 200 353 208 q 366 199 365 200 q 368 199 367 199 q 371 197 371 197 q 376 196 374 196 q 383 197 381 196 m 368 175 l 358 146 q 363 145 361 146 q 368 143 365 144 l 368 175 m 368 125 q 366 128 367 126 q 364 131 365 129 q 360 133 361 133 l 356 133 q 353 133 354 133 q 351 132 353 132 l 335 89 l 339 89 q 355 88 347 89 q 368 81 363 86 l 368 125 m 368 61 q 340 75 358 75 q 329 72 335 75 l 306 15 q 311 17 310 15 q 317 17 314 17 q 324 18 321 18 q 368 1 351 18 l 368 61 m 368 -19 q 326 3 353 3 q 313 1 319 3 q 300 -3 307 0 l 279 -58 q 368 -75 322 -72 l 368 -19 m 283 3 q 214 46 261 46 l 174 7 q 215 -26 193 -11 q 263 -51 238 -40 l 283 3 m 204 61 q 144 113 168 78 l 110 96 q 161 18 128 56 l 204 61 m 81 213 q 103 111 81 163 l 136 125 q 117 167 125 144 q 107 213 110 189 l 81 213 m 106 231 l 106 239 q 117 315 106 275 l 97 321 q 85 276 90 299 q 81 231 81 254 l 106 231 m 122 331 q 172 415 140 379 l 161 426 q 128 385 143 407 q 104 338 114 363 l 122 331 m 185 428 q 188 432 188 431 q 192 436 189 433 q 197 440 194 439 q 203 444 200 442 l 213 456 l 207 442 q 204 431 204 436 q 208 413 204 422 q 217 394 213 403 l 219 394 q 254 404 239 394 q 276 433 269 414 l 250 489 q 210 466 229 479 q 174 438 190 453 l 185 428 m 368 518 q 267 496 313 515 l 290 442 q 317 438 303 438 q 345 442 332 438 q 368 457 358 446 l 368 518 m 335 364 q 368 378 354 364 l 368 439 q 339 426 356 428 q 306 424 322 424 q 301 424 303 424 q 297 425 300 425 l 324 365 q 329 365 326 365 q 335 364 332 364 m 349 307 q 351 306 350 307 l 356 306 q 368 311 363 306 l 368 360 q 331 350 353 350 l 349 307 m 368 263 l 368 294 q 364 292 364 290 l 357 292 l 368 263 m 351 260 l 340 285 q 337 283 339 283 q 332 281 335 282 l 351 260 m 319 293 l 321 293 q 335 300 328 293 l 317 343 q 302 332 310 336 q 286 326 294 328 l 319 293 m 275 339 q 310 358 299 339 l 285 415 q 232 381 268 385 l 274 339 l 275 339 m 326 113 q 322 105 324 108 q 317 97 319 101 l 319 94 l 326 113 m 160 228 q 165 186 160 210 q 179 142 169 163 q 206 108 189 122 q 244 94 222 94 q 276 103 263 94 q 300 127 290 113 q 316 159 310 142 q 325 192 322 176 q 261 267 299 233 q 178 321 224 300 q 160 228 160 274 m 246 54 q 290 19 275 43 l 314 79 q 310 83 311 82 q 307 86 310 85 q 246 54 283 57 m 399 292 q 385 294 389 292 l 385 260 l 399 292 m 385 311 q 404 306 394 306 l 425 350 q 385 360 400 350 l 385 311 m 385 378 q 421 364 401 364 q 432 365 428 364 l 457 425 q 447 423 451 424 q 435 422 442 422 q 408 427 421 422 q 385 439 396 432 l 385 378 m 385 457 q 410 442 397 447 q 439 438 422 438 q 465 442 453 438 l 489 496 q 439 512 465 507 q 385 518 413 517 l 385 457 m 479 433 q 496 407 485 418 q 524 396 507 396 q 553 424 553 396 q 549 442 553 433 l 544 454 l 553 444 q 558 440 556 442 q 564 436 561 439 q 571 428 565 433 l 581 438 q 504 489 546 471 l 479 433 m 596 226 q 576 321 596 275 q 493 267 531 301 q 431 192 456 233 q 440 159 433 176 q 456 127 446 142 q 479 103 465 113 q 511 94 493 94 q 549 108 533 94 q 576 142 565 122 q 591 185 586 161 q 596 226 596 208 m 508 54 q 447 86 472 57 l 442 79 l 464 18 q 508 54 481 43 m 414 75 q 385 61 396 75 l 385 1 q 432 18 404 18 q 438 17 435 18 q 443 17 440 17 q 449 15 444 15 l 425 72 q 414 75 419 75 m 403 133 q 385 125 392 133 l 385 81 q 419 90 400 90 l 403 133 m 385 178 l 385 144 l 390 144 q 397 146 392 146 l 385 178 m 436 96 l 438 97 q 433 104 435 100 q 429 111 432 108 l 436 96 m 401 258 l 424 281 l 417 282 l 414 286 l 401 258 m 524 381 q 471 417 490 385 l 446 358 q 482 339 457 339 l 524 381 m 421 300 q 436 293 428 293 l 468 326 q 439 343 454 328 l 421 300 m 583 415 q 633 331 615 379 l 650 338 q 593 426 632 385 l 583 415 m 639 315 q 647 273 646 294 q 649 231 649 251 l 675 231 q 669 276 674 254 q 657 322 664 299 l 639 315 m 704 222 q 679 97 704 157 q 610 -8 654 38 q 506 -79 565 -53 q 378 -106 447 -106 q 249 -79 310 -106 q 145 -8 189 -53 q 76 96 101 36 q 50 222 50 156 q 76 348 50 289 q 146 451 101 407 q 249 522 190 496 q 376 549 308 549 q 506 523 446 549 q 609 452 565 497 q 678 348 653 407 q 704 222 704 289 z "},"":{"ha":675,"x_min":86,"x_max":606,"o":"m 88 231 q 89 236 88 235 q 92 244 92 239 q 94 258 94 251 q 97 272 94 265 q 113 323 103 297 q 135 372 122 349 q 136 376 136 374 q 119 401 128 389 q 103 424 111 413 q 92 442 96 431 q 104 465 88 458 q 135 442 129 465 q 154 404 139 422 q 157 404 156 401 q 190 438 172 421 q 192 440 192 439 q 189 457 190 449 q 188 474 188 465 q 185 498 186 486 q 186 521 185 510 q 189 537 188 529 q 193 551 190 544 q 199 561 196 558 q 210 567 203 567 q 222 561 217 567 q 222 536 235 549 q 214 526 219 532 q 213 522 213 525 q 209 507 210 515 q 207 492 208 499 q 207 454 203 474 q 211 453 208 451 q 265 481 239 472 q 326 489 292 489 q 375 484 354 489 q 419 468 396 479 q 431 464 424 464 l 456 447 q 461 444 458 447 q 460 465 461 456 q 460 485 460 474 q 458 492 458 488 q 454 500 457 496 q 453 522 450 510 l 453 525 q 451 536 451 531 q 451 549 451 542 q 454 561 451 553 q 467 569 458 568 q 481 565 475 569 q 488 546 493 558 q 485 536 488 542 q 483 519 481 529 q 485 515 485 517 q 486 511 485 514 q 486 496 488 504 l 486 479 q 487 463 488 471 q 485 447 486 456 q 484 444 485 446 q 483 440 483 443 l 483 439 q 485 432 485 436 q 486 426 483 429 q 498 418 493 422 q 508 410 503 414 q 519 400 511 406 q 524 400 522 399 q 531 415 526 407 q 538 429 535 422 q 542 438 540 433 q 547 446 544 442 q 558 456 550 450 q 574 453 567 456 q 581 438 581 450 q 572 410 581 422 q 551 381 564 393 q 549 377 550 378 q 544 374 547 376 q 545 372 544 372 q 546 371 546 372 q 575 310 561 343 l 596 268 q 600 257 599 263 q 604 246 601 251 q 604 235 606 240 q 600 222 600 229 q 599 206 599 217 l 599 196 q 592 181 597 188 q 585 171 586 175 q 582 157 582 167 q 579 138 583 147 q 578 135 578 138 q 576 104 581 119 l 576 99 q 576 78 576 88 q 575 58 576 69 q 574 28 575 43 q 574 -1 572 14 q 574 -21 574 -11 q 575 -42 575 -31 l 575 -65 l 576 -65 q 575 -87 575 -76 q 575 -108 575 -97 q 574 -122 574 -115 q 572 -135 574 -128 q 569 -139 572 -136 q 567 -139 568 -140 q 565 -128 565 -135 l 565 -69 q 566 -51 567 -60 q 564 -32 565 -42 q 564 -15 563 -24 q 564 24 568 6 q 564 53 563 39 l 564 71 q 563 72 564 72 q 556 71 560 69 q 551 78 551 74 q 549 79 550 81 q 544 74 546 76 q 540 69 543 72 q 507 38 524 50 q 485 19 494 29 q 483 15 483 18 q 488 -35 490 -10 q 486 -51 488 -43 q 482 -68 485 -60 q 481 -72 481 -71 q 479 -75 481 -72 q 471 -82 476 -81 q 461 -81 464 -82 q 447 -67 450 -72 q 439 -46 439 -58 q 432 -29 439 -36 q 425 -18 425 -25 q 407 -19 413 -18 l 389 -19 q 350 -21 369 -21 q 311 -21 331 -21 l 303 -21 q 274 -19 288 -21 q 249 -10 261 -18 q 242 -12 246 -10 q 236 -18 239 -15 q 233 -32 231 -25 q 235 -42 235 -37 q 238 -51 236 -46 q 240 -60 240 -56 q 242 -68 240 -64 q 232 -85 242 -81 q 224 -90 226 -87 q 217 -103 217 -94 q 214 -108 217 -106 l 214 -111 q 215 -125 214 -118 q 219 -139 217 -132 q 220 -142 219 -140 q 221 -146 221 -143 l 221 -149 l 219 -150 q 214 -147 217 -150 q 213 -144 214 -146 l 213 -140 l 211 -139 q 208 -140 208 -140 l 208 -151 q 204 -156 208 -156 q 201 -150 201 -156 q 204 -136 204 -142 q 206 -121 208 -129 q 205 -119 206 -119 q 204 -117 204 -118 q 201 -115 201 -115 q 200 -118 200 -118 l 200 -139 q 196 -142 197 -142 q 194 -137 194 -142 l 194 -112 q 192 -106 194 -111 q 186 -99 189 -103 q 181 -92 183 -94 q 179 -74 176 -83 q 179 -51 183 -62 q 181 -40 179 -44 q 182 -14 186 -25 q 164 42 175 17 q 145 71 156 57 q 124 99 135 85 q 122 104 121 103 q 124 110 122 108 q 124 113 126 113 q 119 123 121 118 q 114 133 117 128 q 106 148 110 140 q 99 163 101 156 q 90 203 89 185 q 88 215 90 207 q 88 231 86 224 m 222 82 q 224 65 222 74 q 226 49 225 57 q 229 33 226 38 q 250 14 233 18 q 297 1 271 4 q 317 0 307 0 q 333 -1 326 0 q 388 3 361 -1 q 433 15 411 6 q 436 18 436 15 q 444 63 443 42 q 440 126 447 94 q 436 143 438 135 q 432 158 435 151 q 421 190 428 172 q 410 205 417 197 q 393 213 403 213 q 379 204 386 213 q 375 199 375 203 q 376 183 376 193 q 377 171 376 176 q 378 158 378 165 q 374 147 378 151 q 371 139 371 142 q 372 128 371 133 q 371 119 372 124 q 371 97 371 108 q 374 74 371 85 l 374 58 q 373 56 374 57 q 372 54 372 56 l 368 54 q 367 56 367 56 q 365 58 367 57 l 365 64 q 363 84 364 75 q 363 104 363 93 q 363 133 363 119 q 364 161 363 146 q 364 175 364 168 q 361 189 364 182 q 358 196 361 190 q 354 194 356 197 q 353 188 353 192 l 353 147 q 350 144 353 144 q 347 146 347 142 q 346 158 344 154 q 340 161 346 163 q 335 165 335 161 q 333 169 335 168 q 332 172 333 171 l 332 153 q 331 148 331 150 q 328 143 331 146 q 325 144 325 144 q 324 147 325 146 q 324 149 324 147 q 322 163 322 156 q 322 176 322 169 q 323 185 324 181 q 322 193 322 189 q 318 183 318 190 l 318 168 q 315 164 318 164 q 311 168 311 164 l 311 174 q 309 176 310 175 q 306 179 308 178 l 306 150 q 305 148 306 149 q 304 146 304 147 l 300 142 q 296 144 296 142 q 293 153 292 149 q 294 158 293 156 q 294 163 294 160 q 298 183 297 174 q 301 203 299 192 q 300 221 303 210 q 296 222 299 222 q 290 219 293 219 q 283 215 286 218 q 239 175 256 203 q 224 139 229 161 q 222 127 222 132 q 221 115 222 122 q 222 82 218 97 m 215 414 q 218 403 218 408 q 238 357 226 379 q 274 324 250 335 q 296 319 285 319 q 300 325 300 319 q 299 344 299 332 q 300 352 300 349 q 303 358 300 356 q 314 367 306 367 q 324 358 321 367 q 328 336 328 349 q 331 332 328 332 l 340 332 l 342 333 q 342 338 342 338 l 342 350 q 344 356 343 353 q 347 363 344 360 q 357 367 351 367 q 368 358 365 367 q 369 344 368 357 q 369 331 369 332 q 374 321 368 326 q 383 317 378 317 q 388 318 386 318 q 393 319 390 318 q 414 331 404 322 q 431 352 424 340 q 445 376 439 364 q 454 399 451 389 q 451 408 457 404 q 440 416 446 413 q 428 422 435 419 q 413 428 421 425 q 397 435 404 432 q 383 440 390 438 q 369 444 376 442 q 350 449 360 447 q 329 450 340 450 q 313 451 324 451 q 294 450 300 451 q 281 445 288 447 q 268 440 275 443 q 263 438 265 438 q 259 438 260 438 q 257 439 258 439 l 254 439 q 217 418 236 431 q 215 414 215 418 m 124 219 q 129 201 126 210 q 135 185 132 193 q 139 165 139 175 q 138 158 139 161 q 138 150 138 154 q 143 122 138 133 q 181 58 158 92 q 183 58 181 56 q 200 90 196 71 l 204 128 q 208 150 207 139 q 213 172 210 161 q 240 236 221 206 q 242 240 242 238 q 230 242 235 242 q 221 242 225 242 l 206 242 q 188 231 194 242 q 165 221 178 221 q 161 218 161 221 l 161 214 q 162 211 161 213 q 163 208 163 210 q 160 204 163 204 q 154 210 154 204 q 156 215 156 213 q 151 225 158 222 q 135 253 138 233 q 136 260 136 256 q 164 281 143 281 q 188 274 178 281 q 214 265 200 265 q 229 264 221 264 q 246 263 238 264 q 254 262 250 263 q 261 261 258 261 l 263 261 l 263 263 q 258 265 260 265 q 246 271 254 268 q 211 293 225 279 q 188 317 200 306 q 174 333 181 325 q 160 347 167 340 q 156 349 158 349 q 146 339 150 344 l 142 326 q 135 297 139 311 q 125 268 131 283 q 124 219 117 246 m 419 238 l 421 236 q 427 231 424 233 q 435 225 431 228 q 456 200 450 217 q 465 168 463 183 q 467 154 467 161 q 469 140 468 147 q 470 124 469 132 q 471 106 471 115 q 472 97 472 101 q 472 88 472 92 q 474 74 474 81 q 476 60 475 67 q 479 42 476 53 q 482 40 479 39 q 485 44 485 43 q 501 60 493 51 q 517 76 508 68 l 517 79 q 516 83 517 82 q 515 86 515 85 q 514 111 514 99 q 514 136 514 124 q 517 168 513 151 l 517 175 q 518 186 517 182 q 519 197 519 192 q 519 208 519 203 q 501 238 519 233 q 463 243 482 243 q 454 243 460 243 q 443 242 449 243 l 422 238 l 419 238 m 408 254 l 413 254 q 446 261 428 254 q 467 268 460 267 q 479 267 475 268 q 494 264 483 267 q 497 265 496 265 q 500 267 499 265 q 503 269 503 269 q 508 282 503 278 q 522 289 513 286 q 538 303 533 290 q 539 311 538 308 q 536 321 539 318 q 529 333 533 328 q 521 344 525 338 q 517 344 519 347 l 475 303 q 450 282 465 293 q 433 270 442 275 q 415 260 424 265 q 408 254 413 258 m 408 289 q 409 288 408 288 q 410 286 410 288 q 418 289 418 289 q 465 321 439 300 q 501 363 490 342 q 501 365 503 364 l 494 372 q 485 381 490 376 q 476 389 481 385 q 474 388 475 390 q 465 369 468 376 q 456 353 461 361 q 446 336 451 344 q 417 300 436 318 q 410 294 413 296 q 408 289 406 292 m 175 376 q 183 365 179 369 q 192 353 188 360 q 221 322 204 336 q 257 299 238 307 l 240 319 q 211 368 222 340 q 206 386 208 378 q 200 404 203 394 q 199 407 200 406 q 190 399 193 403 q 182 393 186 396 q 174 383 176 388 q 175 376 171 378 m 532 97 q 542 115 538 104 q 536 117 538 111 q 533 126 533 125 l 533 153 q 531 156 531 156 q 528 154 529 154 q 525 140 525 146 l 525 88 q 529 92 528 90 q 532 97 531 94 m 547 154 l 547 156 q 545 148 546 151 q 544 140 544 144 q 545 129 546 135 q 543 117 544 124 q 547 154 551 136 z "},"":{"ha":722,"x_min":47,"x_max":629,"o":"m 160 261 l 267 324 q 247 381 247 350 q 274 446 247 419 q 339 472 300 472 q 403 445 376 472 q 431 381 431 418 q 410 324 431 349 l 517 261 l 517 56 l 339 -47 l 160 56 l 160 261 m 47 303 l 160 368 l 160 392 l 100 426 l 100 599 l 131 581 l 131 435 l 185 403 l 185 354 l 78 293 l 78 8 l 47 -10 l 47 303 m 546 435 l 546 581 l 576 599 l 576 426 l 517 392 l 517 368 l 629 303 l 629 -10 l 599 8 l 599 293 l 492 354 l 492 403 l 546 435 m 443 424 l 489 451 l 489 547 l 517 564 l 518 433 l 476 408 l 476 346 l 571 292 l 571 25 l 542 42 l 542 276 l 443 333 l 443 424 m 107 292 l 200 346 l 200 408 l 158 433 l 160 564 l 188 547 l 188 451 l 233 424 l 233 333 l 135 276 l 135 42 l 107 25 l 107 292 z "},"":{"ha":788,"x_min":35,"x_max":803,"o":"m 122 350 q 123 338 125 343 q 115 332 121 332 q 107 340 111 332 q 97 361 99 347 q 103 375 96 375 q 115 365 107 375 q 116 356 117 361 q 122 350 115 351 m 554 483 q 557 485 557 485 l 558 485 q 558 477 565 485 q 546 469 550 469 q 543 474 543 469 q 556 513 547 494 q 567 531 564 531 q 566 520 568 531 q 554 483 564 510 m 778 149 q 784 144 782 150 q 783 132 786 138 q 776 129 781 129 q 767 133 772 129 q 758 140 761 136 q 756 147 754 143 q 765 150 757 150 q 778 149 772 150 m 146 328 q 139 317 144 317 q 128 326 132 317 q 131 342 124 335 q 140 338 135 343 q 146 328 146 332 m 647 -14 q 651 -17 650 -17 q 654 -21 653 -18 q 649 -39 656 -39 q 642 -35 646 -39 q 638 -26 639 -31 q 638 -17 636 -21 q 647 -14 640 -14 m 318 469 q 310 458 317 458 q 300 466 304 458 q 299 482 296 474 q 303 483 300 483 q 310 477 308 483 q 318 469 313 471 m 497 -65 q 501 -74 506 -68 q 494 -85 497 -81 q 490 -77 490 -82 q 485 -75 490 -72 q 480 -67 476 -72 q 490 -62 483 -62 q 497 -65 496 -62 m 139 85 q 146 71 149 81 q 139 65 142 65 q 128 76 132 65 q 139 85 125 86 m 669 33 q 660 22 664 25 q 651 33 649 25 q 661 42 654 42 q 669 33 665 42 m 746 161 q 754 153 753 158 q 743 144 756 147 q 740 155 738 147 q 746 161 743 163 m 169 364 q 176 358 179 365 q 169 350 174 350 q 165 356 167 350 q 160 351 164 351 q 156 353 158 351 q 149 356 153 354 q 156 359 153 357 q 161 361 158 361 q 165 358 163 361 q 169 364 165 364 m 742 218 q 738 226 733 222 q 749 231 743 231 q 754 228 753 231 q 749 222 754 224 q 742 218 744 221 m 276 544 l 274 542 q 269 545 271 542 q 264 550 267 549 q 272 554 268 554 q 276 544 278 554 m 156 403 q 158 411 154 408 q 164 415 161 414 q 168 415 168 417 q 166 410 168 413 q 160 405 164 407 q 156 403 157 403 m 660 -31 q 663 -26 661 -28 q 667 -19 664 -24 q 670 -31 671 -25 q 667 -36 669 -36 q 660 -31 664 -36 m 586 -46 q 592 -42 589 -42 q 599 -50 593 -42 q 594 -53 596 -53 q 590 -51 592 -53 q 586 -46 589 -49 m 572 -15 q 574 -12 572 -12 q 574 -11 574 -11 q 578 -10 575 -10 q 579 -22 585 -22 q 572 -15 576 -22 m 647 358 q 654 360 649 360 q 664 356 656 360 q 657 353 660 354 q 653 351 654 351 q 647 356 650 351 q 640 351 643 351 q 638 359 636 351 q 642 367 639 367 q 647 358 643 367 m 724 172 q 729 176 726 175 q 731 167 732 171 q 728 164 731 164 q 724 172 724 164 m 424 -62 q 429 -70 426 -64 q 426 -78 432 -76 q 423 -69 426 -75 q 424 -62 419 -64 m 721 192 q 726 186 722 193 q 718 183 718 183 q 714 186 714 183 q 721 192 714 189 m 532 -14 q 533 -19 532 -17 q 529 -22 533 -22 l 525 -22 q 522 -19 519 -22 q 532 -14 525 -15 m 782 350 q 778 355 778 350 q 781 360 778 360 q 785 354 783 360 q 783 347 785 350 q 783 349 783 349 q 782 350 782 349 m 464 -65 q 466 -62 465 -64 q 468 -60 467 -61 q 472 -67 472 -62 q 468 -71 471 -71 q 464 -65 465 -71 m 426 510 q 421 507 422 506 q 419 512 418 510 q 422 514 419 514 q 426 510 425 514 m 318 528 q 315 532 314 529 q 317 539 315 535 q 322 533 322 535 q 318 528 321 531 m 157 421 q 151 423 149 421 q 158 425 154 425 q 165 422 163 425 q 157 421 160 419 m 301 522 q 294 519 293 519 q 292 524 292 522 q 296 526 293 526 q 301 522 300 526 m 172 -40 q 176 -36 175 -36 q 182 -39 179 -36 q 178 -44 181 -44 q 172 -40 176 -44 m 406 568 q 399 563 401 563 q 397 566 396 563 q 403 569 399 569 l 406 569 l 408 569 q 415 566 414 569 q 413 563 415 563 q 406 568 410 563 m 631 10 q 635 3 636 6 q 632 -1 635 1 q 628 3 628 1 q 631 10 629 6 m 713 319 q 716 313 717 317 q 713 308 715 308 q 708 313 711 308 q 710 316 710 315 q 713 319 711 317 m 628 -12 q 629 -9 629 -10 q 631 -6 629 -8 q 629 -18 635 -12 q 628 -15 629 -15 q 628 -12 628 -14 m 547 -81 q 551 -87 551 -83 q 549 -90 551 -90 q 544 -87 547 -90 q 547 -81 544 -89 m 231 -94 q 236 -87 238 -87 l 238 -89 q 239 -92 239 -90 q 233 -96 235 -96 q 231 -94 232 -96 m 396 518 q 399 519 397 519 q 402 517 401 519 q 400 511 403 514 q 396 518 399 513 m 119 386 q 119 383 119 385 q 117 378 118 382 q 115 389 108 389 q 119 386 118 389 m 147 386 q 146 383 146 383 l 144 382 q 139 389 143 382 q 147 386 142 392 m 671 372 q 669 369 669 369 q 665 374 667 369 q 668 378 663 378 q 669 375 669 376 q 671 372 669 374 m 135 354 q 129 349 131 349 q 131 357 122 349 l 135 354 m 606 257 q 604 268 604 260 q 608 265 607 268 q 606 257 610 263 m 678 4 q 683 7 683 7 q 685 4 686 7 q 681 -1 683 1 q 678 4 678 1 m 333 572 q 326 574 329 568 q 333 572 332 576 m 689 307 q 682 307 688 301 q 689 307 686 308 m 381 556 q 376 556 376 553 q 378 561 375 558 l 382 557 q 381 553 382 554 q 381 556 378 553 m 161 114 q 154 113 160 110 q 157 115 156 115 q 161 114 158 114 m 328 542 q 331 544 325 544 q 335 542 333 544 l 328 542 m 690 290 q 692 282 696 289 q 690 290 688 286 m 678 292 q 676 296 672 292 q 678 292 685 294 m 368 35 q 369 38 369 36 q 369 29 374 33 q 369 31 369 31 q 368 35 368 32 m 578 511 q 576 517 575 514 q 579 517 576 519 l 578 511 m 218 514 q 211 513 217 511 q 214 515 213 515 q 218 514 215 514 m 175 485 q 174 488 172 486 q 178 489 175 489 q 181 488 179 489 q 175 485 175 485 m 629 60 q 626 56 628 56 q 626 64 624 56 q 629 60 626 63 m 582 265 q 592 263 588 265 q 588 262 589 263 q 586 261 588 261 q 582 265 585 261 m 196 457 q 193 453 196 458 q 193 463 190 463 q 196 457 196 463 m 288 461 q 283 460 286 460 q 282 464 281 460 l 288 461 m 647 57 q 656 57 650 60 q 647 57 653 54 m 47 218 q 50 215 47 218 q 47 214 47 214 q 43 215 44 214 q 47 218 42 217 m 64 188 q 60 179 69 179 q 60 183 57 182 q 64 188 63 185 m 342 -18 q 339 -24 344 -21 q 338 -20 338 -22 q 342 -18 339 -18 m 550 -28 q 551 -31 550 -29 q 549 -31 550 -31 q 547 -32 549 -32 q 544 -30 544 -32 q 550 -28 544 -28 m 453 -35 q 454 -32 453 -32 q 454 -31 454 -31 q 460 -33 457 -31 q 453 -35 456 -36 m 571 -33 q 574 -35 574 -31 q 572 -42 575 -39 q 572 -37 572 -39 q 571 -33 571 -35 m 658 -39 q 661 -36 661 -36 q 663 -40 663 -36 q 661 -44 664 -43 q 658 -39 658 -39 m 540 -50 q 542 -47 540 -47 q 542 -46 542 -46 q 543 -53 546 -46 q 540 -50 540 -50 m 185 350 q 186 353 185 353 q 186 354 186 354 q 188 347 190 354 q 185 350 185 350 m 749 188 q 753 182 751 185 q 753 179 756 179 q 751 180 751 179 q 749 181 750 181 q 747 183 746 181 q 749 188 749 186 m 767 361 q 763 360 764 361 q 761 360 763 360 l 758 363 q 763 364 760 364 q 767 361 765 364 m 228 383 q 226 383 226 383 q 224 382 225 382 q 220 383 221 382 q 225 386 219 385 l 228 383 m 100 206 q 99 200 104 203 q 97 203 97 201 q 100 206 97 206 m 732 247 q 735 247 733 250 q 733 244 736 244 q 732 247 732 246 m 35 250 q 39 250 36 253 q 37 249 38 247 q 35 250 36 250 m 758 121 q 763 121 761 124 q 758 121 758 121 m 803 97 q 803 93 803 93 q 803 97 800 96 m 50 263 q 47 262 49 260 q 49 265 46 264 q 50 263 49 264 m 54 83 q 57 84 56 86 q 56 81 58 82 q 54 83 56 82 m 149 279 q 147 279 147 276 q 147 282 146 282 l 149 279 m 76 194 q 81 194 78 197 q 76 194 79 193 m 771 300 q 770 303 768 301 q 774 301 772 304 q 771 300 772 301 m 665 304 q 665 300 665 300 q 665 304 663 303 m 60 42 q 60 39 63 40 q 58 40 58 38 q 60 42 60 40 m 689 40 q 693 40 693 40 q 689 40 690 38 m 671 306 q 672 307 671 307 q 672 308 672 307 q 674 305 675 307 q 671 306 672 303 m 621 22 q 625 22 622 24 q 621 22 624 21 m 136 313 q 137 311 136 311 q 138 310 138 311 q 135 309 136 307 q 136 313 133 311 m 621 10 q 625 10 624 13 q 621 10 622 8 m 568 318 q 567 321 565 319 q 571 319 569 322 q 568 318 569 318 m 279 318 q 276 318 278 315 q 278 321 275 321 q 279 318 279 319 m 161 319 q 157 319 160 317 q 161 319 157 319 m 331 554 q 333 558 329 557 q 331 554 333 557 m 654 -8 q 651 -9 653 -11 q 653 -6 650 -7 q 654 -8 654 -7 m 640 -14 q 636 -11 639 -14 q 640 -14 638 -11 m 433 554 q 429 556 432 553 q 432 557 432 558 q 433 554 432 556 m 433 551 q 436 551 436 557 q 433 551 435 550 m 361 -24 q 364 -24 363 -21 q 363 -26 365 -26 q 361 -24 361 -26 m 243 544 q 243 540 246 543 q 243 544 243 540 m 174 329 q 176 329 175 332 q 175 325 176 326 q 174 329 174 326 m 415 532 q 417 536 413 535 q 415 532 418 535 m 626 -28 q 628 -31 628 -31 q 624 -30 625 -32 q 626 -28 624 -28 m 278 519 q 278 515 281 518 q 278 519 278 515 m 582 496 q 578 496 581 494 q 582 496 578 496 m 292 488 q 288 488 290 485 q 292 488 288 488 m 632 -33 q 628 -33 631 -36 q 632 -33 629 -31 m 381 378 q 375 381 379 382 q 372 386 371 379 q 381 397 374 397 q 389 391 386 397 q 381 378 392 385 m 450 338 q 444 349 444 344 q 446 353 443 353 q 456 343 450 353 l 450 338 m 388 321 q 383 327 381 324 q 388 338 385 331 q 392 327 390 331 q 388 321 394 324 m 442 333 q 435 335 439 332 q 436 342 432 339 l 442 333 m 401 356 q 400 360 399 358 q 403 363 401 363 q 406 361 406 363 l 401 356 m 481 361 q 478 357 479 357 q 476 358 476 357 q 472 361 475 360 q 475 364 475 364 q 481 361 475 364 m 442 321 q 442 324 442 322 q 443 326 443 325 q 444 320 446 324 q 442 317 443 317 l 442 321 m 385 317 q 382 313 382 314 q 382 319 379 319 l 383 319 q 385 317 385 318 m 375 347 q 372 347 374 344 q 374 351 371 350 q 375 347 375 350 m 444 331 q 442 332 444 331 q 444 331 443 335 m 496 324 q 498 324 497 326 q 497 321 499 322 l 496 324 m 315 303 q 324 314 317 314 q 332 308 329 314 q 324 294 335 301 q 318 298 322 299 q 315 303 314 297 m 428 281 q 429 285 426 285 q 428 281 431 283 m 386 247 q 386 250 381 247 q 386 247 386 247 m 400 110 q 394 92 401 92 q 388 96 392 92 q 383 105 385 100 q 384 113 382 110 q 393 117 386 117 q 397 113 396 114 q 400 110 399 113 m 469 85 q 461 82 464 82 q 452 87 454 82 q 460 94 450 92 q 469 85 463 94 m 450 124 q 444 121 449 121 q 438 127 439 121 q 444 133 438 133 q 450 124 451 133 m 465 108 q 460 109 463 106 q 461 115 457 113 l 465 108 m 444 107 q 450 104 450 107 q 444 107 443 104 m 468 101 q 469 94 471 97 q 467 90 468 90 l 467 94 q 467 98 467 97 q 468 101 468 99 m 407 94 q 407 86 410 92 q 407 94 406 93 m 400 122 q 397 122 399 119 q 399 125 396 124 q 400 122 400 124 m 468 104 q 468 108 467 107 q 468 104 472 104 m 532 75 l 538 86 q 541 75 542 81 q 538 69 540 69 q 532 75 536 69 m 550 110 q 554 113 553 113 q 556 110 557 113 q 551 104 554 107 q 550 107 551 106 q 550 110 549 108 m 531 67 q 532 69 532 69 q 535 66 535 69 q 532 61 535 63 q 531 65 532 64 q 531 67 531 65 m 625 65 q 624 61 628 61 q 619 63 621 61 q 622 65 618 65 q 622 74 619 71 q 626 76 624 76 q 630 74 629 76 q 624 65 631 71 l 625 65 m 646 72 q 649 73 647 75 q 647 69 650 71 l 646 72 m 235 150 q 238 151 236 153 q 236 147 239 149 q 235 150 235 150 m 767 339 q 768 342 764 342 q 767 339 771 340 m 564 -37 q 567 -37 565 -35 q 565 -40 568 -39 q 564 -37 564 -37 m 688 343 q 688 339 690 342 q 688 343 688 343 m 575 -42 q 578 -42 578 -36 q 575 -42 576 -43 m 235 -46 q 238 -45 236 -43 q 236 -49 239 -47 q 235 -46 235 -47 m 428 -47 q 426 -48 428 -50 q 428 -44 425 -46 l 428 -47 m 551 -46 q 556 -46 551 -46 q 551 -46 554 -49 m 408 -53 q 407 -49 406 -51 q 410 -50 408 -47 l 408 -53 m 724 224 q 719 225 722 222 q 724 224 721 229 m 189 433 q 188 436 186 435 q 192 435 190 438 q 189 433 190 435 m 482 -79 q 483 -82 485 -81 q 479 -81 481 -83 q 482 -79 481 -79 m 118 417 q 115 417 117 414 q 117 421 114 419 q 118 417 118 419 m 717 178 q 719 178 719 178 q 717 178 718 176 m 731 361 q 728 360 729 358 q 729 364 728 363 q 731 361 731 364 m 717 229 q 719 226 719 231 q 717 229 719 226 m 653 419 q 653 415 654 418 q 653 419 651 418 m 649 364 q 648 367 647 365 q 650 367 649 369 l 649 364 m 406 -97 q 409 -98 408 -94 q 406 -99 410 -101 q 403 -98 403 -101 q 406 -97 403 -94 m 111 414 q 107 414 110 411 q 111 414 108 417 m 217 378 q 217 372 218 374 q 217 378 215 376 m 292 457 q 296 457 294 460 q 292 457 293 456 m 681 407 q 681 404 683 406 q 678 406 679 403 q 681 407 679 406 m 704 388 q 708 389 706 390 q 707 386 710 388 l 704 388 m 771 404 q 770 406 768 404 q 774 406 772 408 q 771 404 774 404 m 201 38 q 204 42 206 38 q 202 53 203 47 q 203 63 201 58 q 213 68 204 68 l 215 68 q 222 41 226 58 q 222 8 217 24 q 218 -15 226 -15 q 209 -10 214 -15 q 201 4 204 -4 q 197 22 197 13 q 201 38 196 31 m 235 -6 q 232 -8 235 -8 q 231 -8 232 -8 q 228 6 225 -8 q 246 19 232 19 q 267 11 254 19 q 278 -11 278 -6 q 272 -17 278 -17 q 255 -12 265 -17 q 235 -6 244 -8 m 706 376 q 715 371 714 378 q 714 356 717 364 q 706 340 711 347 q 696 333 700 333 q 690 336 692 333 q 706 376 690 358 m 258 483 q 255 495 258 488 q 249 510 251 503 q 244 524 246 518 q 246 531 243 531 q 253 526 249 531 q 256 511 253 521 q 264 492 260 501 q 269 477 268 483 q 263 472 269 471 q 253 480 260 475 q 253 485 247 485 q 255 484 254 485 q 258 483 256 483 m 682 342 q 686 328 685 333 q 675 317 681 317 q 667 328 668 317 q 682 342 667 340 m 157 174 q 151 172 156 172 q 147 183 144 172 q 160 196 150 194 q 165 183 167 190 q 157 174 165 176 m 496 464 q 494 469 494 467 q 511 485 506 485 q 515 472 518 485 q 504 458 511 458 q 496 464 500 458 m 325 -61 q 333 -67 333 -65 q 331 -72 333 -69 q 324 -77 328 -74 q 318 -85 319 -81 q 311 -69 310 -74 q 325 -61 313 -64 m 674 85 q 684 76 688 86 q 674 65 681 65 q 667 71 671 65 q 674 85 664 81 m 149 42 q 161 33 158 44 q 153 22 161 22 q 144 31 147 28 q 149 42 140 35 m 67 161 q 72 155 69 163 q 69 144 75 147 q 58 153 57 147 q 67 161 60 158 m 196 -72 q 213 -67 203 -67 q 217 -74 219 -72 q 208 -76 214 -76 q 196 -72 200 -76 m 690 422 q 686 415 690 415 q 679 418 683 415 q 672 424 675 421 q 680 426 676 425 q 686 428 683 428 q 690 422 690 428 m 588 274 q 588 281 585 281 q 593 283 590 282 q 599 276 600 282 q 593 269 597 269 q 588 274 590 269 m 326 -44 l 331 -40 q 335 -49 333 -40 q 333 -53 338 -51 q 326 -56 329 -56 q 322 -51 322 -56 q 317 -62 321 -62 q 311 -56 314 -62 q 314 -49 308 -49 q 322 -51 318 -49 q 326 -44 324 -50 m 483 -56 q 482 -53 483 -53 l 478 -53 q 478 -49 476 -53 q 482 -42 479 -42 q 486 -45 485 -42 q 490 -51 488 -49 q 499 -49 494 -49 q 501 -56 504 -49 q 494 -62 499 -62 q 490 -53 492 -62 q 486 -56 490 -56 l 483 -56 m 60 231 q 76 224 75 229 q 71 219 76 219 q 58 228 65 219 q 60 231 60 231 m 181 -57 q 169 -47 175 -51 q 178 -44 178 -44 q 181 -57 190 -44 m 540 540 l 536 544 q 540 554 536 554 q 546 549 544 554 q 540 540 547 544 m 167 306 q 172 298 174 303 q 167 293 171 293 q 161 300 164 293 q 167 306 161 300 m 644 415 q 653 413 647 417 q 657 403 660 410 q 649 408 654 403 q 644 415 644 413 m 214 -50 q 221 -42 219 -42 q 226 -46 225 -42 q 222 -51 224 -49 q 218 -53 221 -53 q 214 -50 217 -53 m 238 -10 q 239 -18 242 -14 q 233 -22 236 -22 q 233 -14 228 -22 q 238 -10 233 -10 m 185 -72 q 178 -79 181 -79 q 174 -75 175 -79 q 178 -65 174 -71 l 185 -72 m 156 279 q 151 286 149 283 q 158 293 154 289 q 160 285 163 288 q 156 279 158 283 m 83 176 q 89 169 90 174 q 83 164 88 164 q 82 165 82 164 q 81 165 82 165 q 82 171 82 168 q 83 176 82 174 m 88 118 l 92 122 q 92 114 94 118 q 88 110 90 110 q 85 115 85 110 q 82 117 79 114 q 88 118 85 121 m 189 76 q 190 64 193 74 q 183 73 185 71 q 189 76 181 75 m 389 -62 q 390 -69 393 -64 q 386 -78 386 -75 q 383 -70 381 -76 q 389 -62 386 -64 m 647 532 q 644 537 643 535 q 649 543 646 539 q 653 537 656 539 q 647 532 651 535 m 94 183 q 88 188 88 185 q 92 190 89 190 q 100 186 97 190 q 94 183 97 183 m 281 -14 q 290 -19 288 -15 q 288 -22 293 -22 l 283 -22 q 280 -19 279 -22 q 281 -14 281 -17 m 196 357 q 192 351 193 351 q 186 356 190 351 q 190 360 189 360 q 196 357 190 360 m 342 -65 q 344 -60 342 -65 q 349 -67 350 -64 q 346 -71 349 -71 q 342 -65 342 -71 m 394 513 q 392 507 393 507 q 386 510 392 507 q 390 514 388 514 q 394 513 393 514 m 499 531 l 496 528 q 492 532 493 528 q 496 539 490 536 q 499 531 496 536 m 663 422 q 656 421 661 421 q 647 422 650 421 q 656 425 653 425 q 663 422 660 425 m 521 524 q 518 519 521 519 q 511 522 517 519 q 517 528 515 528 q 521 524 519 528 m 631 -39 q 638 -36 636 -36 q 640 -41 640 -39 q 636 -43 639 -43 q 631 -39 633 -43 m 782 269 q 782 260 782 265 q 778 253 782 256 q 778 262 778 257 q 782 269 778 267 m 181 -1 q 181 10 175 4 q 184 3 183 6 q 181 -1 185 1 m 101 308 q 96 311 96 307 q 100 319 96 315 q 101 308 106 311 m 182 -6 q 183 -18 186 -11 q 181 -15 182 -17 q 179 -12 181 -14 l 182 -6 m 240 -53 q 242 -58 243 -56 q 238 -60 240 -60 q 235 -58 236 -60 l 240 -53 m 250 -62 q 253 -57 250 -57 q 257 -58 256 -57 q 254 -62 256 -60 q 251 -65 253 -65 q 250 -62 250 -64 m 193 -64 q 194 -70 196 -69 q 190 -74 193 -71 q 189 -69 188 -71 q 193 -64 190 -67 m 261 -86 q 263 -84 261 -85 q 265 -81 264 -83 q 267 -87 268 -85 q 264 -90 267 -90 q 261 -86 261 -90 m 194 -87 q 196 -85 196 -85 l 197 -83 q 203 -90 200 -83 q 194 -87 201 -92 m 406 528 q 411 533 410 533 q 412 529 413 533 q 408 525 411 525 l 406 528 q 403 525 403 525 q 400 529 400 525 q 401 533 400 533 q 406 528 404 533 m 417 518 q 413 511 414 511 q 410 515 413 511 q 413 519 411 517 q 417 518 414 521 m 700 386 l 696 378 q 694 385 693 382 q 697 389 694 389 q 700 386 697 389 m 674 389 q 668 382 671 382 l 667 383 q 665 386 667 385 q 674 389 671 392 m 142 372 q 149 376 144 381 q 147 372 147 375 q 144 369 146 369 q 142 372 144 369 m 685 347 q 679 352 682 350 q 682 357 676 354 q 685 347 688 351 m 129 7 q 132 -1 136 4 q 128 3 131 1 q 129 7 126 4 m 486 574 q 479 572 483 568 q 486 574 481 576 m 131 307 q 124 307 125 301 q 131 307 128 308 m 436 558 l 436 556 q 435 554 435 554 q 433 557 433 554 q 435 561 432 560 q 436 558 436 560 m 725 118 q 731 117 728 121 q 728 115 733 114 q 725 110 728 110 q 720 114 722 110 q 721 122 718 118 l 725 118 m 658 113 q 651 114 653 110 q 656 115 654 114 q 658 113 657 115 m 478 542 q 482 544 479 544 l 486 544 q 483 542 486 542 l 478 542 m 121 282 q 122 290 117 289 q 121 282 125 286 m 135 292 q 136 296 128 294 q 135 292 140 292 m 440 33 q 443 38 443 38 q 444 35 444 38 q 443 29 444 32 q 440 33 442 31 m 238 515 q 235 511 238 514 q 234 515 233 513 q 236 518 235 518 l 238 518 l 238 515 m 596 511 q 594 514 594 513 q 597 515 597 515 q 600 513 600 515 q 596 511 600 511 m 164 231 q 162 235 163 233 q 164 240 161 238 q 164 231 167 236 m 640 486 q 632 488 639 485 q 640 486 636 490 m 186 64 q 186 56 189 56 q 183 60 186 56 l 186 64 m 226 265 q 229 264 231 267 q 225 261 228 261 q 221 263 222 261 q 226 265 224 265 m 621 461 q 620 458 621 460 q 619 453 619 456 q 617 460 617 456 q 621 461 618 464 m 532 460 q 525 461 531 458 q 531 464 528 464 l 532 463 l 532 460 m 157 57 q 165 57 163 60 q 157 57 160 54 m 231 268 q 232 272 231 272 q 233 264 236 272 q 231 268 231 267 m 763 215 q 767 218 765 218 q 769 217 769 218 q 767 214 769 215 q 765 215 765 214 q 763 215 764 215 m 261 -31 q 264 -28 263 -28 l 268 -28 q 261 -31 267 -31 m 358 -31 q 357 -35 361 -35 q 353 -33 354 -35 l 358 -31 m 272 333 q 269 331 272 331 q 265 332 267 331 q 272 333 268 335 m 240 -42 q 238 -35 238 -39 q 242 -33 239 -31 q 241 -37 242 -35 q 240 -42 240 -39 m 268 -46 q 272 -47 271 -43 q 269 -53 274 -51 q 269 -49 269 -50 q 268 -46 268 -49 m 179 -82 q 183 -79 181 -79 l 188 -79 q 185 -83 188 -83 q 183 -83 183 -83 q 179 -82 182 -82 m 713 206 q 715 203 715 206 q 714 200 715 201 q 713 206 708 203 m 682 136 q 685 132 688 136 q 682 136 682 135 m 79 244 q 78 247 76 244 q 81 247 79 250 q 79 244 79 244 m 775 249 q 774 250 775 250 q 777 251 776 253 q 775 249 778 250 m 50 121 q 54 121 51 124 q 50 121 54 121 m 196 92 q 200 92 196 92 q 196 92 199 89 m 765 264 q 764 261 765 263 q 763 265 761 263 q 765 264 764 267 m 757 81 q 757 85 754 82 q 757 81 757 85 m 665 282 q 666 279 667 282 q 664 279 665 276 l 665 282 m 733 193 q 735 196 728 196 q 733 193 738 193 m 147 300 q 147 303 146 301 q 149 303 147 306 q 147 300 149 301 m 119 40 q 124 40 119 40 q 119 40 122 38 m 106 304 q 104 308 103 307 q 106 304 108 308 m 140 304 q 140 308 139 307 q 140 304 140 304 m 739 307 q 736 307 736 304 q 739 307 739 307 m 188 22 q 192 22 190 24 q 188 22 190 21 m 678 311 q 677 310 678 310 q 676 308 676 310 q 675 312 674 310 q 678 311 676 314 m 192 10 q 188 10 190 8 q 192 10 190 13 m 585 571 q 585 567 585 571 q 585 571 582 568 m 651 319 q 656 319 656 319 q 651 319 653 317 m 482 554 q 479 558 479 557 q 482 554 483 557 m 779 222 q 779 218 782 219 q 779 222 779 222 m 160 -10 q 160 -6 157 -8 q 160 -10 160 -6 m 182 325 q 183 322 185 324 q 181 323 182 322 q 182 325 179 324 m 172 -14 q 176 -11 174 -10 q 172 -14 174 -14 m 743 324 q 739 324 742 321 q 743 324 742 326 m 376 551 q 379 553 378 554 q 378 550 381 551 q 376 551 376 550 m 450 -26 q 450 -22 450 -26 q 450 -26 453 -24 m 571 542 q 568 542 569 539 q 569 544 567 544 q 571 542 569 543 m 399 533 q 396 532 397 531 q 396 536 394 533 l 399 533 m 185 -32 q 188 -29 185 -26 q 185 -32 188 -32 m 536 517 q 533 516 535 514 q 535 519 532 518 q 536 517 536 517 m 233 496 q 231 496 232 494 q 233 496 233 496 m 525 488 q 521 488 522 485 q 525 488 525 488 m 185 -33 q 181 -33 182 -36 q 185 -33 183 -31 m 247 -40 q 247 -36 247 -40 q 247 -40 250 -37 m 125 339 q 124 342 122 340 q 126 342 125 344 q 125 339 125 339 m 236 -40 q 238 -43 239 -42 q 235 -42 236 -44 l 236 -40 m 576 -49 q 576 -44 576 -49 q 576 -49 579 -46 m 386 -46 q 385 -49 386 -47 q 385 -45 383 -47 q 386 -46 386 -43 m 258 -47 q 260 -44 258 -47 q 258 -47 263 -47 m 406 -51 q 403 -52 404 -54 q 404 -49 401 -50 q 406 -51 406 -50 m 93 225 q 89 224 89 224 q 93 225 92 229 m 150 207 q 154 207 151 208 q 150 207 154 207 m 625 435 q 621 435 625 435 q 625 435 622 438 m 329 -81 q 333 -81 332 -79 q 329 -81 332 -82 m 696 421 q 696 415 696 421 q 696 421 693 417 m 93 178 q 96 178 93 178 q 93 178 94 176 m 83 364 q 83 360 83 364 q 83 364 81 361 m 93 231 q 94 226 99 231 q 93 231 93 226 m 160 419 q 160 415 163 418 q 160 419 158 418 m 243 -92 q 243 -87 243 -92 q 243 -92 246 -89 m 163 367 q 165 367 164 369 q 164 364 165 365 q 163 367 163 367 m 317 -92 q 318 -94 319 -93 q 315 -93 317 -96 q 317 -92 315 -92 m 703 413 q 701 414 701 413 q 704 415 703 417 q 703 413 706 414 m 196 -97 q 199 -97 197 -94 q 197 -100 200 -99 l 196 -97 m 517 457 q 521 457 519 460 q 517 457 519 456 m 135 406 q 131 406 133 403 q 135 406 131 406 m 108 388 q 104 388 104 388 q 108 388 107 390 m 779 167 q 781 163 782 165 q 778 164 779 161 l 779 167 m 724 167 q 718 157 718 161 q 720 149 718 153 q 724 140 722 144 q 722 132 725 136 q 701 142 717 142 q 656 125 681 142 q 625 90 631 108 q 617 78 621 86 q 610 60 613 69 q 608 44 608 51 q 611 38 608 38 q 614 19 617 29 q 613 -3 611 8 q 593 -14 600 -14 q 589 -7 589 -14 q 590 10 589 0 q 593 30 592 19 q 592 47 594 40 q 549 14 569 26 q 565 19 558 19 q 577 15 572 19 q 583 5 582 10 q 584 -5 585 0 q 581 -10 583 -10 l 579 -8 q 576 -7 578 -8 q 558 -13 568 -10 q 540 -17 547 -17 q 534 -11 533 -17 q 546 13 535 -6 q 527 -1 531 4 q 521 -18 524 -6 q 513 -24 511 -17 q 510 -32 515 -32 q 500 -28 507 -32 q 506 -40 503 -36 q 501 -42 504 -42 q 490 -39 496 -42 q 479 -33 485 -36 q 482 -28 476 -28 q 486 -31 485 -28 q 488 -22 493 -28 q 476 -17 483 -17 q 471 -18 472 -17 q 474 -22 475 -21 q 471 -22 474 -22 q 471 -18 465 -22 q 448 -22 461 -22 q 426 -26 435 -22 q 424 -25 424 -25 q 413 -35 415 -25 q 422 -33 417 -33 q 423 -38 429 -33 q 413 -43 417 -43 q 411 -35 406 -43 q 408 -29 408 -32 l 407 -28 q 401 -35 406 -28 q 400 -43 407 -43 q 390 -38 396 -43 q 390 -33 383 -33 q 400 -35 396 -33 q 396 -28 399 -32 q 390 -24 393 -24 q 386 -26 389 -24 q 358 -17 376 -18 q 329 -8 340 -17 q 323 -26 324 -22 q 325 -29 322 -29 q 327 -28 326 -29 q 329 -28 328 -28 q 333 -33 333 -28 q 322 -39 328 -36 q 311 -42 317 -42 q 307 -40 308 -42 q 310 -34 308 -37 q 313 -28 311 -31 q 306 -31 310 -31 q 297 -22 299 -31 q 288 -10 294 -12 q 288 10 290 0 q 268 22 286 19 q 260 32 268 32 q 251 31 256 32 q 244 31 247 31 q 240 38 239 31 q 232 59 239 49 q 217 80 225 69 q 201 102 208 90 q 189 128 193 114 q 169 122 179 122 q 149 126 158 122 q 131 135 140 131 q 128 132 131 135 q 129 136 128 135 q 117 141 122 139 q 106 143 111 143 q 93 138 99 143 q 89 133 92 133 q 87 138 86 133 q 93 144 88 143 q 94 157 100 154 q 89 167 88 160 q 94 165 90 165 q 106 171 100 165 q 114 179 113 176 l 111 179 q 105 194 100 179 q 117 210 110 208 q 116 216 114 213 q 113 221 118 219 q 122 224 118 221 q 132 228 126 226 q 96 246 107 235 q 82 268 85 257 q 84 288 79 279 q 96 296 89 296 q 119 272 110 296 q 129 267 126 267 q 131 270 132 267 q 136 274 131 274 q 138 260 133 268 q 146 244 142 251 q 151 231 150 236 q 142 222 151 225 q 150 209 153 218 q 139 200 147 200 q 135 201 136 200 q 133 201 135 201 q 141 183 144 186 q 132 181 138 181 q 124 176 126 181 q 135 156 122 172 q 147 162 142 153 q 160 171 153 171 q 167 165 163 171 q 176 168 176 175 q 172 189 175 178 q 165 201 168 200 q 172 215 172 206 q 170 233 172 224 q 167 248 168 242 q 171 254 167 254 q 174 253 172 253 q 178 290 169 271 q 198 327 186 308 q 222 364 210 346 q 238 399 233 382 q 233 401 236 399 q 232 391 229 396 q 232 386 235 386 q 226 388 229 386 q 223 388 224 385 q 225 389 222 392 q 221 392 222 392 l 217 392 q 210 394 211 392 q 206 371 213 378 q 189 364 199 364 q 165 376 174 364 q 175 408 156 389 q 176 429 171 429 q 190 418 182 429 q 204 404 199 407 q 203 417 206 411 q 199 428 201 422 q 194 440 196 433 q 196 454 193 446 q 209 461 201 456 q 204 468 217 467 q 199 491 196 485 q 208 497 201 497 q 224 493 215 497 q 240 485 233 489 q 251 476 247 481 q 249 472 254 472 q 242 474 244 472 q 253 466 247 467 q 263 454 260 465 q 269 463 267 463 q 274 455 274 463 q 263 444 274 447 q 289 438 274 438 q 317 444 301 439 q 348 454 332 449 q 380 465 364 460 q 413 469 396 469 l 421 469 q 410 475 418 472 q 417 478 413 475 q 426 484 422 481 q 431 491 429 488 q 429 494 432 494 q 422 493 425 494 q 418 500 415 497 q 425 503 421 503 q 435 497 433 503 q 438 513 438 503 q 433 524 438 524 q 428 515 432 524 q 420 519 425 519 q 421 526 415 519 q 422 532 424 529 q 425 536 421 535 q 435 528 432 528 q 436 529 436 528 q 439 531 436 531 q 444 529 442 531 q 443 535 447 533 q 434 539 439 538 q 428 542 429 540 q 432 546 426 543 q 442 549 435 550 q 446 560 449 549 q 449 561 446 561 q 453 556 454 561 q 463 566 456 561 q 475 571 469 571 q 479 558 483 571 q 475 553 472 557 q 479 544 478 549 q 460 540 464 543 q 458 533 457 538 q 460 523 458 529 q 454 507 461 517 q 469 515 465 510 q 475 521 472 521 q 478 493 476 521 q 474 473 469 483 q 488 456 478 463 q 513 444 499 449 q 536 439 526 439 q 550 444 549 439 q 539 455 539 447 q 543 463 539 463 q 550 454 546 463 q 559 466 553 465 q 571 474 565 467 q 564 472 568 472 q 562 476 558 472 q 572 485 565 481 q 588 493 579 489 q 604 497 597 497 q 614 491 611 497 q 608 468 617 485 q 603 461 596 467 q 617 454 611 456 q 618 440 619 446 q 614 428 617 433 q 609 417 611 422 q 608 404 607 411 q 622 418 614 407 q 636 429 631 429 q 638 408 642 429 q 647 380 653 397 q 626 363 642 363 q 615 365 619 363 q 623 359 618 360 q 625 353 628 358 q 631 345 628 357 q 638 329 633 333 q 647 310 643 319 q 653 290 650 301 q 656 292 654 292 q 660 286 658 292 q 658 281 661 281 q 656 282 657 281 q 660 258 658 269 q 663 233 661 246 q 672 253 665 247 q 676 274 679 260 q 681 270 682 274 q 683 267 681 267 q 693 272 686 267 q 717 296 703 296 q 728 288 724 296 q 731 268 733 279 q 717 246 728 257 q 681 228 706 235 q 690 224 686 226 q 700 221 694 221 q 697 216 694 219 q 696 210 699 213 q 708 194 703 208 q 701 179 713 179 l 699 179 q 706 171 700 176 q 718 165 713 165 q 724 167 722 165 m 168 165 q 175 157 171 157 q 176 165 179 157 q 174 163 176 163 q 168 165 171 163 m 411 396 q 394 422 417 422 q 360 415 379 422 q 331 403 342 407 q 368 372 338 372 q 411 396 392 372 m 349 75 q 368 79 356 74 q 385 85 381 85 q 381 76 389 85 q 411 60 399 74 q 410 87 414 71 q 411 110 406 103 q 397 136 410 136 q 384 128 392 136 q 369 111 376 121 q 356 91 361 101 q 349 75 351 81 m 360 276 l 364 276 q 367 269 371 276 q 361 263 364 263 q 357 272 357 263 q 352 265 350 268 q 359 260 354 263 q 370 255 364 257 q 378 250 376 253 q 378 257 375 257 q 383 250 381 257 l 379 250 l 401 239 q 391 258 397 246 q 381 276 385 269 q 372 285 369 279 q 369 297 375 292 q 360 276 368 288 m 411 250 l 411 257 l 411 301 q 403 294 406 299 q 396 289 400 289 q 386 296 392 289 l 411 250 m 397 164 q 392 155 394 160 q 386 144 389 150 q 393 146 389 146 q 411 139 401 146 l 411 158 q 406 153 410 154 q 399 157 401 153 q 397 164 393 160 m 383 232 q 390 228 386 228 l 383 232 m 400 168 q 407 172 404 172 q 411 169 408 172 l 411 193 q 406 181 408 186 q 400 168 403 175 m 411 381 q 367 363 390 363 q 350 365 361 363 q 375 335 357 346 q 381 308 371 322 q 390 304 388 304 q 392 315 394 304 q 401 308 399 308 q 411 319 406 308 l 411 381 m 301 386 q 274 365 285 378 q 258 341 263 353 q 254 321 253 329 q 264 313 256 313 q 281 319 271 313 q 304 340 290 325 q 307 322 303 322 q 317 333 311 322 q 326 358 322 344 q 328 382 329 371 q 318 393 328 393 q 301 386 313 393 m 232 422 l 232 419 l 232 421 l 232 422 m 219 458 q 228 444 231 453 q 233 426 226 435 q 246 433 240 433 q 255 424 253 433 q 260 411 257 415 q 265 424 267 421 q 260 431 264 428 q 250 436 256 433 q 242 446 244 439 q 240 442 240 444 q 237 456 238 451 q 229 460 236 460 q 224 459 226 460 q 219 458 222 458 m 222 271 q 219 236 218 246 q 225 226 221 226 q 248 249 235 226 q 265 294 261 271 q 242 307 249 307 q 231 297 233 307 q 225 272 228 288 q 224 272 224 272 q 222 271 224 271 m 236 133 q 256 142 250 138 q 261 153 261 147 q 258 168 261 160 q 250 188 254 176 l 242 179 q 235 190 233 182 q 243 199 236 199 q 249 196 243 199 q 228 217 238 217 q 220 207 222 217 q 219 183 218 197 q 225 155 221 169 q 236 132 229 140 l 236 133 m 318 47 q 329 67 328 58 q 326 83 331 76 q 315 97 322 90 q 296 108 307 103 q 258 129 271 129 q 252 118 250 129 q 263 93 254 107 q 287 66 272 79 q 318 47 301 53 m 339 356 q 324 328 333 340 q 310 307 314 317 q 313 288 307 297 q 342 271 318 279 q 347 279 340 279 l 347 278 l 346 276 q 344 274 346 275 q 363 308 361 290 q 354 301 360 301 q 349 307 350 301 q 356 313 349 313 q 363 310 357 313 q 359 317 363 310 q 351 332 356 324 q 343 348 347 340 q 339 356 339 356 m 344 97 q 339 92 342 94 q 339 86 336 90 l 344 97 m 411 21 q 399 56 418 46 q 363 67 381 67 q 343 63 347 67 q 335 40 331 49 q 354 28 340 32 q 385 24 368 25 q 411 21 401 22 m 606 290 q 596 286 600 286 q 590 292 590 286 q 601 300 590 297 q 597 307 601 307 q 588 303 593 307 q 581 299 583 300 q 586 295 590 299 q 579 292 582 292 q 579 299 576 292 q 572 288 565 296 q 579 268 578 279 q 581 268 581 272 q 583 256 582 264 q 585 240 585 249 q 586 228 586 232 q 599 226 592 226 q 614 233 611 226 q 616 249 617 239 q 612 269 615 258 q 606 290 608 281 m 599 392 l 594 392 q 598 388 597 389 q 601 383 599 386 q 603 394 601 392 q 599 392 600 392 m 571 446 q 563 434 568 436 q 549 431 557 432 q 553 425 550 425 q 560 429 556 425 q 571 433 565 433 q 579 426 576 433 q 585 444 586 435 q 593 458 583 453 q 586 460 590 460 q 575 451 576 460 q 571 446 574 443 m 581 422 l 581 419 l 581 421 l 581 422 m 572 411 l 574 413 l 572 411 m 557 365 q 553 350 563 358 q 544 333 544 342 q 552 317 546 322 q 565 311 558 311 q 583 326 578 311 q 557 365 588 342 m 508 375 q 512 344 506 360 q 532 321 518 329 q 531 331 532 326 q 529 340 531 335 q 533 349 531 343 q 539 361 536 354 q 543 373 542 368 q 542 378 544 378 q 536 375 542 378 q 529 388 533 386 q 518 394 525 389 l 508 375 m 465 476 q 463 476 464 476 q 460 475 463 475 q 464 472 460 472 q 465 476 469 472 m 447 519 q 447 526 451 526 q 444 525 446 526 q 447 519 444 522 m 425 422 q 428 394 422 408 q 446 378 433 381 q 450 397 453 386 q 467 378 458 383 q 482 372 475 372 q 496 380 492 372 q 497 397 500 388 q 478 415 493 407 q 436 422 464 422 l 425 422 m 449 144 q 425 193 433 165 l 425 139 q 442 146 435 146 q 449 144 446 146 m 488 75 q 481 90 485 79 q 470 110 476 100 q 457 129 464 121 q 443 138 450 138 q 425 121 433 138 l 425 60 q 446 74 435 71 q 468 76 457 76 q 488 75 482 76 m 440 240 q 462 251 453 247 q 476 261 471 256 q 479 275 481 267 q 467 297 478 283 l 436 239 q 438 241 438 239 q 440 240 439 243 m 450 296 q 443 294 447 294 q 425 301 435 294 l 425 250 l 450 296 m 472 339 q 469 340 468 336 q 474 342 471 344 l 488 365 q 469 364 481 364 q 444 368 457 364 q 439 358 443 358 q 431 368 435 358 q 425 381 428 378 l 425 354 q 426 334 426 351 q 428 315 425 317 q 435 319 432 319 q 442 314 440 319 q 436 308 443 308 l 433 308 q 443 304 440 304 q 461 318 454 304 q 472 339 468 332 m 456 24 q 490 32 479 25 q 500 47 500 39 q 491 63 500 56 q 469 69 482 69 q 448 64 460 69 q 425 44 436 58 q 425 25 422 29 q 432 21 428 21 q 443 23 438 21 q 451 25 449 25 q 456 24 454 25 m 496 92 q 497 90 496 89 l 496 92 m 496 271 q 522 288 517 279 q 524 307 528 297 q 513 329 521 317 q 497 356 504 342 q 486 335 492 347 q 478 310 481 322 q 480 288 476 299 q 496 271 483 278 m 513 90 q 507 83 508 89 q 513 90 510 89 m 576 103 q 579 120 582 114 q 569 126 576 126 q 547 119 561 126 q 514 92 533 111 q 527 78 529 89 q 518 67 525 67 q 507 83 511 67 q 507 69 504 78 q 514 58 510 61 q 515 54 511 58 q 518 49 517 51 q 574 96 551 64 q 565 101 567 93 q 571 108 563 108 q 576 103 576 108 m 615 188 q 617 207 619 196 q 611 201 617 200 q 605 207 604 203 q 608 214 606 211 q 597 215 606 215 q 586 214 590 215 q 581 181 586 197 q 569 149 576 164 q 593 138 588 138 q 608 161 603 138 q 607 158 607 158 q 606 161 606 158 q 608 161 607 164 q 612 170 613 165 q 610 179 611 175 q 609 186 608 183 q 615 188 610 189 m 663 226 l 663 213 q 671 222 663 219 q 663 226 664 222 m 693 178 q 673 183 681 181 q 679 201 665 186 l 674 201 q 663 213 663 201 q 665 185 660 197 q 657 168 669 174 q 671 157 667 157 q 679 162 675 157 q 690 174 683 167 l 693 178 z "}}}
